<svg width="76" height="17" viewBox="0 0 76 17" fill="none" xmlns="http://www.w3.org/2000/svg">
<path d="M47.7901 1.79778V4.0888H46.3541V5.59124H47.7901V10.6962C47.7901 12.4394 48.5787 13.1367 50.5625 13.1367C50.9112 13.1367 51.2432 13.0951 51.5337 13.0453V11.5595C51.2847 11.5844 51.127 11.601 50.8531 11.601C49.9649 11.601 49.5748 11.186 49.5748 10.2397V5.59124H51.5337V4.0888H49.5748V1.79778H47.7901Z" fill="white"/>
<path d="M56.5876 13.2612C59.2272 13.2612 60.8459 11.4931 60.8459 8.56292C60.8459 5.64935 59.2189 3.87298 56.5876 3.87298C53.9479 3.87298 52.321 5.64935 52.321 8.56292C52.321 11.4931 53.9396 13.2612 56.5876 13.2612ZM56.5876 11.6757C55.0353 11.6757 54.1638 10.5385 54.1638 8.56292C54.1638 6.60394 55.0353 5.45843 56.5876 5.45843C58.1315 5.45843 59.0114 6.60394 59.0114 8.56292C59.0114 10.5302 58.1315 11.6757 56.5876 11.6757Z" fill="white"/>
<path d="M62.2308 13.0868H64.0155V7.74944C64.0155 6.47942 64.97 5.62444 66.3231 5.62444C66.6385 5.62444 67.1698 5.68255 67.3192 5.73235V3.97259C67.1283 3.92278 66.7879 3.89788 66.5223 3.89788C65.3436 3.89788 64.3392 4.54534 64.0819 5.43353H63.9491V4.0473H62.2308V13.0868Z" fill="white"/>
<path d="M71.7505 5.39202C73.0703 5.39202 73.9336 6.31341 73.9751 7.73284H69.4096C69.5092 6.32171 70.4306 5.39202 71.7505 5.39202ZM73.9668 10.6464C73.6347 11.352 72.896 11.7421 71.8169 11.7421C70.3891 11.7421 69.4677 10.7377 69.4096 9.15228V9.05267H75.7929V8.43011C75.7929 5.59124 74.2739 3.87298 71.7588 3.87298C69.2104 3.87298 67.5918 5.70745 67.5918 8.59612C67.5918 11.4848 69.1772 13.2612 71.7671 13.2612C73.834 13.2612 75.2783 12.2651 75.685 10.6464H73.9668Z" fill="white"/>
<path d="M36.0865 9.74868C36.2242 11.9684 38.0739 13.388 40.827 13.388C43.7694 13.388 45.6106 11.8996 45.6106 9.52499C45.6106 7.65803 44.561 6.62561 42.0143 6.03196L40.6464 5.69643C39.0289 5.31787 38.375 4.81026 38.375 3.9241C38.375 2.80564 39.3903 2.07435 40.9131 2.07435C42.3585 2.07435 43.3565 2.78844 43.5371 3.93271H45.4127C45.3009 1.84205 43.4597 0.37085 40.9389 0.37085C38.2288 0.37085 36.422 1.84205 36.422 4.05315C36.422 5.8771 37.4459 6.96114 39.6914 7.48596L41.2916 7.87312C42.9349 8.26027 43.6576 8.82811 43.6576 9.77449C43.6576 10.8757 42.5219 11.6759 40.9733 11.6759C39.3128 11.6759 38.1599 10.9274 37.9965 9.74868H36.0865Z" fill="white"/>
<path d="M17.5992 3.89788C16.3707 3.89788 15.3082 4.51214 14.7603 5.54144H14.6275V4.0473H12.9092V16.0917H14.6939V11.7172H14.835C15.3082 12.6718 16.3292 13.2363 17.6158 13.2363C19.8985 13.2363 21.3511 11.435 21.3511 8.56292C21.3511 5.69085 19.8985 3.89788 17.5992 3.89788ZM17.0928 11.6342C15.5987 11.6342 14.6607 10.4555 14.6607 8.57122C14.6607 6.67864 15.5987 5.49993 17.1011 5.49993C18.6119 5.49993 19.5167 6.65374 19.5167 8.56292C19.5167 10.4804 18.6119 11.6342 17.0928 11.6342Z" fill="white"/>
<path d="M27.596 3.89788C26.3675 3.89788 25.305 4.51214 24.7571 5.54144H24.6243V4.0473H22.906V16.0917H24.6907V11.7172H24.8318C25.305 12.6718 26.3259 13.2363 27.6126 13.2363C29.8953 13.2363 31.3479 11.435 31.3479 8.56292C31.3479 5.69085 29.8953 3.89788 27.596 3.89788ZM27.0896 11.6342C25.5955 11.6342 24.6575 10.4555 24.6575 8.57122C24.6575 6.67864 25.5955 5.49993 27.0979 5.49993C28.6087 5.49993 29.5134 6.65374 29.5134 8.56292C29.5134 10.4804 28.6087 11.6342 27.0896 11.6342Z" fill="white"/>
<path d="M9.70723 13.0868H11.7549L7.27243 0.671973H5.19898L0.716553 13.0868H2.69536L3.83963 9.7917H8.57156L9.70723 13.0868ZM6.13677 2.92609H6.28303L8.08116 8.17424H4.33003L6.13677 2.92609Z" fill="white"/>
</svg>
