<svg width="125" height="125" viewBox="0 0 125 125" fill="none" xmlns="http://www.w3.org/2000/svg">
<path d="M31.25 67.7084C38.4412 67.7084 44.2708 61.8787 44.2708 54.6875C44.2708 47.4963 38.4412 41.6667 31.25 41.6667C24.0588 41.6667 18.2291 47.4963 18.2291 54.6875C18.2291 61.8787 24.0588 67.7084 31.25 67.7084Z" fill="#FFA726"/>
<path d="M5.20837 90.3646C5.20837 90.3646 12.5 73.9583 31.25 73.9583C50 73.9583 57.2917 90.3646 57.2917 90.3646V98.9583H5.20837V90.3646ZM119.792 90.3646C119.792 90.3646 112.5 73.9583 93.75 73.9583C75 73.9583 67.7084 90.3646 67.7084 90.3646V98.9583H119.792V90.3646Z" fill="#455A64"/>
<path d="M62.5 59.8958C71.1294 59.8958 78.125 52.9003 78.125 44.2708C78.125 35.6414 71.1294 28.6458 62.5 28.6458C53.8706 28.6458 46.875 35.6414 46.875 44.2708C46.875 52.9003 53.8706 59.8958 62.5 59.8958Z" fill="#FFB74D"/>
<path d="M93.75 88.8021C93.75 88.8021 85.1562 69.2708 62.5 69.2708C39.8438 69.2708 31.25 88.8021 31.25 88.8021V98.9583H93.75V88.8021Z" fill="#607D8B"/>
<path d="M93.75 67.7084C100.941 67.7084 106.771 61.8787 106.771 54.6875C106.771 47.4963 100.941 41.6667 93.75 41.6667C86.5588 41.6667 80.7291 47.4963 80.7291 54.6875C80.7291 61.8787 86.5588 67.7084 93.75 67.7084Z" fill="#FFA726"/>
<path d="M31.25 67.7084C38.4412 67.7084 44.2708 61.8787 44.2708 54.6875C44.2708 47.4963 38.4412 41.6667 31.25 41.6667C24.0588 41.6667 18.2291 47.4963 18.2291 54.6875C18.2291 61.8787 24.0588 67.7084 31.25 67.7084Z" fill="#FFA726"/>
<path d="M93.75 67.7084C100.941 67.7084 106.771 61.8787 106.771 54.6875C106.771 47.4963 100.941 41.6667 93.75 41.6667C86.5588 41.6667 80.7291 47.4963 80.7291 54.6875C80.7291 61.8787 86.5588 67.7084 93.75 67.7084Z" fill="#FFA726"/>
</svg>
