<svg width="75" height="75" viewBox="0 0 75 75" fill="none" xmlns="http://www.w3.org/2000/svg">
<path d="M18.75 40.625C23.0647 40.625 26.5625 37.1272 26.5625 32.8125C26.5625 28.4978 23.0647 25 18.75 25C14.4353 25 10.9375 28.4978 10.9375 32.8125C10.9375 37.1272 14.4353 40.625 18.75 40.625Z" fill="#FFA726"/>
<path d="M3.125 54.2188C3.125 54.2188 7.5 44.375 18.75 44.375C30 44.375 34.375 54.2188 34.375 54.2188V59.375H3.125V54.2188ZM71.875 54.2188C71.875 54.2188 67.5 44.375 56.25 44.375C45 44.375 40.625 54.2188 40.625 54.2188V59.375H71.875V54.2188Z" fill="#455A64"/>
<path d="M37.5 35.9375C42.6777 35.9375 46.875 31.7402 46.875 26.5625C46.875 21.3848 42.6777 17.1875 37.5 17.1875C32.3223 17.1875 28.125 21.3848 28.125 26.5625C28.125 31.7402 32.3223 35.9375 37.5 35.9375Z" fill="#FFB74D"/>
<path d="M56.25 53.2812C56.25 53.2812 51.0937 41.5625 37.5 41.5625C23.9063 41.5625 18.75 53.2812 18.75 53.2812V59.375H56.25V53.2812Z" fill="#607D8B"/>
<path d="M56.25 40.625C60.5647 40.625 64.0625 37.1272 64.0625 32.8125C64.0625 28.4978 60.5647 25 56.25 25C51.9353 25 48.4375 28.4978 48.4375 32.8125C48.4375 37.1272 51.9353 40.625 56.25 40.625Z" fill="#FFA726"/>
<path d="M18.75 40.625C23.0647 40.625 26.5625 37.1272 26.5625 32.8125C26.5625 28.4978 23.0647 25 18.75 25C14.4353 25 10.9375 28.4978 10.9375 32.8125C10.9375 37.1272 14.4353 40.625 18.75 40.625Z" fill="#FFA726"/>
<path d="M56.25 40.625C60.5647 40.625 64.0625 37.1272 64.0625 32.8125C64.0625 28.4978 60.5647 25 56.25 25C51.9353 25 48.4375 28.4978 48.4375 32.8125C48.4375 37.1272 51.9353 40.625 56.25 40.625Z" fill="#FFA726"/>
</svg>
