<svg width="70" height="7" viewBox="0 0 70 7" fill="none" xmlns="http://www.w3.org/2000/svg">
<path d="M0.716553 0.294678V6.28369H2.87891C4.66357 6.28369 5.69702 5.18384 5.69702 3.27051C5.69702 1.38623 4.65527 0.294678 2.87891 0.294678H0.716553ZM1.64624 1.14136H2.77515C4.01611 1.14136 4.75073 1.92993 4.75073 3.28296C4.75073 4.65674 4.02856 5.43701 2.77515 5.43701H1.64624V1.14136Z" fill="white"/>
<path d="M8.86211 6.37085C10.1819 6.37085 10.9913 5.48682 10.9913 4.02173C10.9913 2.56494 10.1778 1.67676 8.86211 1.67676C7.54228 1.67676 6.72881 2.56494 6.72881 4.02173C6.72881 5.48682 7.53813 6.37085 8.86211 6.37085ZM8.86211 5.57812C8.08599 5.57812 7.6502 5.00952 7.6502 4.02173C7.6502 3.04224 8.08599 2.46948 8.86211 2.46948C9.63408 2.46948 10.074 3.04224 10.074 4.02173C10.074 5.00537 9.63408 5.57812 8.86211 5.57812Z" fill="white"/>
<path d="M17.8834 1.76392H16.9911L16.1859 5.21289H16.1153L15.1856 1.76392H14.3307L13.401 5.21289H13.3346L12.5252 1.76392H11.6205L12.8656 6.28369H13.7828L14.7125 2.95508H14.7831L15.7169 6.28369H16.6424L17.8834 1.76392Z" fill="white"/>
<path d="M18.911 6.28369H19.8034V3.63989C19.8034 2.93433 20.2226 2.49438 20.8825 2.49438C21.5424 2.49438 21.8578 2.85547 21.8578 3.58179V6.28369H22.7501V3.35767C22.7501 2.28271 22.194 1.67676 21.1854 1.67676C20.5048 1.67676 20.0565 1.97974 19.8366 2.48193H19.7702V1.76392H18.911V6.28369Z" fill="white"/>
<path d="M24.1555 6.28369H25.0478V0H24.1555V6.28369Z" fill="white"/>
<path d="M28.4038 6.37085C29.7236 6.37085 30.533 5.48682 30.533 4.02173C30.533 2.56494 29.7195 1.67676 28.4038 1.67676C27.084 1.67676 26.2705 2.56494 26.2705 4.02173C26.2705 5.48682 27.0798 6.37085 28.4038 6.37085ZM28.4038 5.57812C27.6277 5.57812 27.1919 5.00952 27.1919 4.02173C27.1919 3.04224 27.6277 2.46948 28.4038 2.46948C29.1758 2.46948 29.6157 3.04224 29.6157 4.02173C29.6157 5.00537 29.1758 5.57812 28.4038 5.57812Z" fill="white"/>
<path d="M33.1917 5.60718C32.7061 5.60718 32.3533 5.37061 32.3533 4.96387C32.3533 4.56543 32.6355 4.35376 33.2581 4.31226L34.3621 4.2417V4.61938C34.3621 5.17969 33.8641 5.60718 33.1917 5.60718ZM32.9634 6.3584C33.5569 6.3584 34.0508 6.10107 34.3206 5.64868H34.3912V6.28369H35.2503V3.1958C35.2503 2.24121 34.6111 1.67676 33.4781 1.67676C32.4529 1.67676 31.7225 2.1748 31.6312 2.95093H32.4944C32.594 2.63135 32.9385 2.44873 33.4366 2.44873C34.0467 2.44873 34.3621 2.71851 34.3621 3.1958V3.58594L33.1377 3.65649C32.0628 3.7229 31.4568 4.19189 31.4568 5.00537C31.4568 5.8313 32.0918 6.3584 32.9634 6.3584Z" fill="white"/>
<path d="M38.2784 6.3584C38.901 6.3584 39.4281 6.06372 39.6978 5.56982H39.7684V6.28369H40.6234V0H39.7311V2.48193H39.6646C39.4198 1.98389 38.8968 1.68921 38.2784 1.68921C37.1371 1.68921 36.4024 2.59399 36.4024 4.02173C36.4024 5.45361 37.1288 6.3584 38.2784 6.3584ZM38.5316 2.49023C39.2787 2.49023 39.7477 3.08374 39.7477 4.02588C39.7477 4.97217 39.2828 5.55737 38.5316 5.55737C37.7762 5.55737 37.3238 4.98047 37.3238 4.02173C37.3238 3.07129 37.7804 2.49023 38.5316 2.49023Z" fill="white"/>
<path d="M46.4099 6.37085C47.7297 6.37085 48.539 5.48682 48.539 4.02173C48.539 2.56494 47.7255 1.67676 46.4099 1.67676C45.09 1.67676 44.2766 2.56494 44.2766 4.02173C44.2766 5.48682 45.0859 6.37085 46.4099 6.37085ZM46.4099 5.57812C45.6337 5.57812 45.1979 5.00952 45.1979 4.02173C45.1979 3.04224 45.6337 2.46948 46.4099 2.46948C47.1818 2.46948 47.6218 3.04224 47.6218 4.02173C47.6218 5.00537 47.1818 5.57812 46.4099 5.57812Z" fill="white"/>
<path d="M49.7202 6.28369H50.6125V3.63989C50.6125 2.93433 51.0317 2.49438 51.6917 2.49438C52.3516 2.49438 52.667 2.85547 52.667 3.58179V6.28369H53.5593V3.35767C53.5593 2.28271 53.0032 1.67676 51.9946 1.67676C51.314 1.67676 50.8657 1.97974 50.6458 2.48193H50.5793V1.76392H49.7202V6.28369Z" fill="white"/>
<path d="M57.669 0.63916V1.78467H56.951V2.53589H57.669V5.08838C57.669 5.95996 58.0633 6.30859 59.0553 6.30859C59.2296 6.30859 59.3956 6.28784 59.5409 6.26294V5.52002C59.4164 5.53247 59.3375 5.54077 59.2005 5.54077C58.7564 5.54077 58.5614 5.33325 58.5614 4.86011V2.53589H59.5409V1.78467H58.5614V0.63916H57.669Z" fill="white"/>
<path d="M60.7387 6.28369H61.631V3.64404C61.631 2.95923 62.0377 2.49854 62.7682 2.49854C63.3991 2.49854 63.7353 2.86377 63.7353 3.58594V6.28369H64.6276V3.36597C64.6276 2.29102 64.0341 1.68091 63.0712 1.68091C62.3905 1.68091 61.9132 1.98389 61.6933 2.49023H61.6227V0H60.7387V6.28369Z" fill="white"/>
<path d="M67.8466 2.43628C68.5065 2.43628 68.9382 2.89697 68.9589 3.60669H66.6762C66.726 2.90112 67.1867 2.43628 67.8466 2.43628ZM68.9548 5.06348C68.7888 5.41626 68.4194 5.61133 67.8798 5.61133C67.166 5.61133 66.7053 5.10913 66.6762 4.31641V4.2666H69.8679V3.95532C69.8679 2.53589 69.1083 1.67676 67.8508 1.67676C66.5766 1.67676 65.7673 2.59399 65.7673 4.03833C65.7673 5.48267 66.56 6.37085 67.8549 6.37085C68.8884 6.37085 69.6105 5.8728 69.8139 5.06348H68.9548Z" fill="white"/>
</svg>
