<svg width="65" height="64" viewBox="0 0 65 64" fill="none" xmlns="http://www.w3.org/2000/svg">
<path d="M51.1667 17.3333C46.7667 17.3333 43.1667 16.1333 43.1667 14.6667V17.3333C43.1667 18.8 46.7667 20 51.1667 20C55.5667 20 59.1667 18.8 59.1667 17.3333V14.6667C59.1667 16.1333 55.5667 17.3333 51.1667 17.3333Z" fill="#FFA000"/>
<path d="M51.1667 13.3333C46.7667 13.3333 43.1667 12.1333 43.1667 10.6667V13.3333C43.1667 14.8 46.7667 16 51.1667 16C55.5667 16 59.1667 14.8 59.1667 13.3333V10.6667C59.1667 12.1333 55.5667 13.3333 51.1667 13.3333ZM51.1667 21.3333C46.7667 21.3333 43.1667 20.1333 43.1667 18.6667V21.3333C43.1667 22.8 46.7667 24 51.1667 24C55.5667 24 59.1667 22.8 59.1667 21.3333V18.6667C59.1667 20.1333 55.5667 21.3333 51.1667 21.3333Z" fill="#FFA000"/>
<path d="M51.1667 25.3333C46.7667 25.3333 43.1667 24.1333 43.1667 22.6667V25.3333C43.1667 26.8 46.7667 28 51.1667 28C55.5667 28 59.1667 26.8 59.1667 25.3333V22.6667C59.1667 24.1333 55.5667 25.3333 51.1667 25.3333Z" fill="#FFA000"/>
<path d="M51.1667 29.3333C46.7667 29.3333 43.1667 28.1333 43.1667 26.6667V29.3333C43.1667 30.8 46.7667 32 51.1667 32C55.5667 32 59.1667 30.8 59.1667 29.3333V26.6667C59.1667 28.1333 55.5667 29.3333 51.1667 29.3333Z" fill="#FFA000"/>
<path d="M51.1667 33.3333C46.7667 33.3333 43.1667 32.1333 43.1667 30.6667V33.3333C43.1667 34.8 46.7667 36 51.1667 36C55.5667 36 59.1667 34.8 59.1667 33.3333V30.6667C59.1667 32.1333 55.5667 33.3333 51.1667 33.3333Z" fill="#FFA000"/>
<path d="M51.1667 37.3333C46.7667 37.3333 43.1667 36.1333 43.1667 34.6667V37.3333C43.1667 38.8 46.7667 40 51.1667 40C55.5667 40 59.1667 38.8 59.1667 37.3333V34.6667C59.1667 36.1333 55.5667 37.3333 51.1667 37.3333Z" fill="#FFA000"/>
<path d="M51.1667 41.3333C46.7667 41.3333 43.1667 40.1333 43.1667 38.6667V41.3333C43.1667 42.8 46.7667 44 51.1667 44C55.5667 44 59.1667 42.8 59.1667 41.3333V38.6667C59.1667 40.1333 55.5667 41.3333 51.1667 41.3333Z" fill="#FFA000"/>
<path d="M51.1667 45.3333C46.7667 45.3333 43.1667 44.1333 43.1667 42.6667V45.3333C43.1667 46.8 46.7667 48 51.1667 48C55.5667 48 59.1667 46.8 59.1667 45.3333V42.6667C59.1667 44.1333 55.5667 45.3333 51.1667 45.3333Z" fill="#FFA000"/>
<path d="M51.1667 49.3333C46.7667 49.3333 43.1667 48.1333 43.1667 46.6667V49.3333C43.1667 50.8 46.7667 52 51.1667 52C55.5667 52 59.1667 50.8 59.1667 49.3333V46.6667C59.1667 48.1333 55.5667 49.3333 51.1667 49.3333Z" fill="#FFA000"/>
<path d="M51.1667 53.3333C46.7667 53.3333 43.1667 52.1333 43.1667 50.6667V53.3333C43.1667 54.8 46.7667 56 51.1667 56C55.5667 56 59.1667 54.8 59.1667 53.3333V50.6667C59.1667 52.1333 55.5667 53.3333 51.1667 53.3333Z" fill="#FFA000"/>
<path d="M51.1667 13.3333C55.585 13.3333 59.1667 12.1394 59.1667 10.6667C59.1667 9.19391 55.585 8 51.1667 8C46.7484 8 43.1667 9.19391 43.1667 10.6667C43.1667 12.1394 46.7484 13.3333 51.1667 13.3333Z" fill="#FFC107"/>
<path d="M51.1667 16C47.4334 16 44.3667 15.2 43.4334 14C43.3 14.2667 43.1667 14.4 43.1667 14.6667C43.1667 16.1333 46.7667 17.3333 51.1667 17.3333C55.5667 17.3333 59.1667 16.1333 59.1667 14.6667C59.1667 14.4 59.0334 14.2667 58.9 14C57.9667 15.2 54.9 16 51.1667 16ZM51.1667 20C47.4334 20 44.3667 19.2 43.4334 18C43.3 18.2667 43.1667 18.4 43.1667 18.6667C43.1667 20.1333 46.7667 21.3333 51.1667 21.3333C55.5667 21.3333 59.1667 20.1333 59.1667 18.6667C59.1667 18.4 59.0334 18.2667 58.9 18C57.9667 19.2 54.9 20 51.1667 20ZM51.1667 24C47.4334 24 44.3667 23.2 43.4334 22C43.3 22.2667 43.1667 22.4 43.1667 22.6667C43.1667 24.1333 46.7667 25.3333 51.1667 25.3333C55.5667 25.3333 59.1667 24.1333 59.1667 22.6667C59.1667 22.4 59.0334 22.2667 58.9 22C57.9667 23.2 54.9 24 51.1667 24ZM51.1667 28C47.4334 28 44.3667 27.2 43.4334 26C43.3 26.2667 43.1667 26.4 43.1667 26.6667C43.1667 28.1333 46.7667 29.3333 51.1667 29.3333C55.5667 29.3333 59.1667 28.1333 59.1667 26.6667C59.1667 26.4 59.0334 26.2667 58.9 26C57.9667 27.2 54.9 28 51.1667 28ZM51.1667 32C47.4334 32 44.3667 31.2 43.4334 30C43.3 30.2667 43.1667 30.4 43.1667 30.6667C43.1667 32.1333 46.7667 33.3333 51.1667 33.3333C55.5667 33.3333 59.1667 32.1333 59.1667 30.6667C59.1667 30.4 59.0334 30.2667 58.9 30C57.9667 31.2 54.9 32 51.1667 32ZM51.1667 36C47.4334 36 44.3667 35.2 43.4334 34C43.3 34.2667 43.1667 34.4 43.1667 34.6667C43.1667 36.1333 46.7667 37.3333 51.1667 37.3333C55.5667 37.3333 59.1667 36.1333 59.1667 34.6667C59.1667 34.4 59.0334 34.2667 58.9 34C57.9667 35.2 54.9 36 51.1667 36ZM51.1667 40C47.4334 40 44.3667 39.2 43.4334 38C43.3 38.2667 43.1667 38.4 43.1667 38.6667C43.1667 40.1333 46.7667 41.3333 51.1667 41.3333C55.5667 41.3333 59.1667 40.1333 59.1667 38.6667C59.1667 38.4 59.0334 38.2667 58.9 38C57.9667 39.2 54.9 40 51.1667 40ZM51.1667 44C47.4334 44 44.3667 43.2 43.4334 42C43.3 42.2667 43.1667 42.4 43.1667 42.6667C43.1667 44.1333 46.7667 45.3333 51.1667 45.3333C55.5667 45.3333 59.1667 44.1333 59.1667 42.6667C59.1667 42.4 59.0334 42.2667 58.9 42C57.9667 43.2 54.9 44 51.1667 44ZM51.1667 48C47.4334 48 44.3667 47.2 43.4334 46C43.3 46.2667 43.1667 46.4 43.1667 46.6667C43.1667 48.1333 46.7667 49.3333 51.1667 49.3333C55.5667 49.3333 59.1667 48.1333 59.1667 46.6667C59.1667 46.4 59.0334 46.2667 58.9 46C57.9667 47.2 54.9 48 51.1667 48ZM51.1667 52C47.4334 52 44.3667 51.2 43.4334 50C43.3 50.2667 43.1667 50.4 43.1667 50.6667C43.1667 52.1333 46.7667 53.3333 51.1667 53.3333C55.5667 53.3333 59.1667 52.1333 59.1667 50.6667C59.1667 50.4 59.0334 50.2667 58.9 50C57.9667 51.2 54.9 52 51.1667 52Z" fill="#FFC107"/>
<path d="M13.8333 25.3333C9.43331 25.3333 5.83331 24.1333 5.83331 22.6667V25.3333C5.83331 26.8 9.43331 28 13.8333 28C18.2333 28 21.8333 26.8 21.8333 25.3333V22.6667C21.8333 24.1333 18.2333 25.3333 13.8333 25.3333Z" fill="#FFA000"/>
<path d="M13.8333 21.3333C9.43331 21.3333 5.83331 20.1333 5.83331 18.6667V21.3333C5.83331 22.8 9.43331 24 13.8333 24C18.2333 24 21.8333 22.8 21.8333 21.3333V18.6667C21.8333 20.1333 18.2333 21.3333 13.8333 21.3333ZM13.8333 29.3333C9.43331 29.3333 5.83331 28.1333 5.83331 26.6667V29.3333C5.83331 30.8 9.43331 32 13.8333 32C18.2333 32 21.8333 30.8 21.8333 29.3333V26.6667C21.8333 28.1333 18.2333 29.3333 13.8333 29.3333Z" fill="#FFA000"/>
<path d="M13.8333 33.3333C9.43331 33.3333 5.83331 32.1333 5.83331 30.6667V33.3333C5.83331 34.8 9.43331 36 13.8333 36C18.2333 36 21.8333 34.8 21.8333 33.3333V30.6667C21.8333 32.1333 18.2333 33.3333 13.8333 33.3333Z" fill="#FFA000"/>
<path d="M13.8333 37.3333C9.43331 37.3333 5.83331 36.1333 5.83331 34.6667V37.3333C5.83331 38.8 9.43331 40 13.8333 40C18.2333 40 21.8333 38.8 21.8333 37.3333V34.6667C21.8333 36.1333 18.2333 37.3333 13.8333 37.3333Z" fill="#FFA000"/>
<path d="M13.8333 41.3333C9.43331 41.3333 5.83331 40.1333 5.83331 38.6667V41.3333C5.83331 42.8 9.43331 44 13.8333 44C18.2333 44 21.8333 42.8 21.8333 41.3333V38.6667C21.8333 40.1333 18.2333 41.3333 13.8333 41.3333Z" fill="#FFA000"/>
<path d="M13.8333 45.3333C9.43331 45.3333 5.83331 44.1333 5.83331 42.6667V45.3333C5.83331 46.8 9.43331 48 13.8333 48C18.2333 48 21.8333 46.8 21.8333 45.3333V42.6667C21.8333 44.1333 18.2333 45.3333 13.8333 45.3333Z" fill="#FFA000"/>
<path d="M13.8333 49.3333C9.43331 49.3333 5.83331 48.1333 5.83331 46.6667V49.3333C5.83331 50.8 9.43331 52 13.8333 52C18.2333 52 21.8333 50.8 21.8333 49.3333V46.6667C21.8333 48.1333 18.2333 49.3333 13.8333 49.3333Z" fill="#FFA000"/>
<path d="M13.8333 53.3333C9.43331 53.3333 5.83331 52.1333 5.83331 50.6667V53.3333C5.83331 54.8 9.43331 56 13.8333 56C18.2333 56 21.8333 54.8 21.8333 53.3333V50.6667C21.8333 52.1333 18.2333 53.3333 13.8333 53.3333Z" fill="#FFA000"/>
<path d="M13.8333 21.3333C18.2516 21.3333 21.8333 20.1394 21.8333 18.6667C21.8333 17.1939 18.2516 16 13.8333 16C9.41504 16 5.83331 17.1939 5.83331 18.6667C5.83331 20.1394 9.41504 21.3333 13.8333 21.3333Z" fill="#FFC107"/>
<path d="M13.8333 24C10.1 24 7.03331 23.2 6.09998 22C5.96665 22.2667 5.83331 22.4 5.83331 22.6667C5.83331 24.1333 9.43331 25.3333 13.8333 25.3333C18.2333 25.3333 21.8333 24.1333 21.8333 22.6667C21.8333 22.4 21.7 22.2667 21.5666 22C20.6333 23.2 17.5666 24 13.8333 24ZM13.8333 28C10.1 28 7.03331 27.2 6.09998 26C5.96665 26.2667 5.83331 26.4 5.83331 26.6667C5.83331 28.1333 9.43331 29.3333 13.8333 29.3333C18.2333 29.3333 21.8333 28.1333 21.8333 26.6667C21.8333 26.4 21.7 26.2667 21.5666 26C20.6333 27.2 17.5666 28 13.8333 28ZM13.8333 32C10.1 32 7.03331 31.2 6.09998 30C5.96665 30.2667 5.83331 30.4 5.83331 30.6667C5.83331 32.1333 9.43331 33.3333 13.8333 33.3333C18.2333 33.3333 21.8333 32.1333 21.8333 30.6667C21.8333 30.4 21.7 30.2667 21.5666 30C20.6333 31.2 17.5666 32 13.8333 32ZM13.8333 36C10.1 36 7.03331 35.2 6.09998 34C5.96665 34.2667 5.83331 34.4 5.83331 34.6667C5.83331 36.1333 9.43331 37.3333 13.8333 37.3333C18.2333 37.3333 21.8333 36.1333 21.8333 34.6667C21.8333 34.4 21.7 34.2667 21.5666 34C20.6333 35.2 17.5666 36 13.8333 36ZM13.8333 40C10.1 40 7.03331 39.2 6.09998 38C5.96665 38.2667 5.83331 38.4 5.83331 38.6667C5.83331 40.1333 9.43331 41.3333 13.8333 41.3333C18.2333 41.3333 21.8333 40.1333 21.8333 38.6667C21.8333 38.4 21.7 38.2667 21.5666 38C20.6333 39.2 17.5666 40 13.8333 40ZM13.8333 44C10.1 44 7.03331 43.2 6.09998 42C5.96665 42.2667 5.83331 42.4 5.83331 42.6667C5.83331 44.1333 9.43331 45.3333 13.8333 45.3333C18.2333 45.3333 21.8333 44.1333 21.8333 42.6667C21.8333 42.4 21.7 42.2667 21.5666 42C20.6333 43.2 17.5666 44 13.8333 44ZM13.8333 48C10.1 48 7.03331 47.2 6.09998 46C5.96665 46.2667 5.83331 46.4 5.83331 46.6667C5.83331 48.1333 9.43331 49.3333 13.8333 49.3333C18.2333 49.3333 21.8333 48.1333 21.8333 46.6667C21.8333 46.4 21.7 46.2667 21.5666 46C20.6333 47.2 17.5666 48 13.8333 48ZM13.8333 52C10.1 52 7.03331 51.2 6.09998 50C5.96665 50.2667 5.83331 50.4 5.83331 50.6667C5.83331 52.1333 9.43331 53.3333 13.8333 53.3333C18.2333 53.3333 21.8333 52.1333 21.8333 50.6667C21.8333 50.4 21.7 50.2667 21.5666 50C20.6333 51.2 17.5666 52 13.8333 52Z" fill="#FFC107"/>
<path d="M32.5 37.3333C28.1 37.3333 24.5 36.1333 24.5 34.6667V37.3333C24.5 38.8 28.1 40 32.5 40C36.9 40 40.5 38.8 40.5 37.3333V34.6667C40.5 36.1333 36.9 37.3333 32.5 37.3333Z" fill="#FFA000"/>
<path d="M32.5 33.3333C28.1 33.3333 24.5 32.1333 24.5 30.6667V33.3333C24.5 34.8 28.1 36 32.5 36C36.9 36 40.5 34.8 40.5 33.3333V30.6667C40.5 32.1333 36.9 33.3333 32.5 33.3333ZM32.5 41.3333C28.1 41.3333 24.5 40.1333 24.5 38.6667V41.3333C24.5 42.8 28.1 44 32.5 44C36.9 44 40.5 42.8 40.5 41.3333V38.6667C40.5 40.1333 36.9 41.3333 32.5 41.3333Z" fill="#FFA000"/>
<path d="M32.5 45.3333C28.1 45.3333 24.5 44.1333 24.5 42.6667V45.3333C24.5 46.8 28.1 48 32.5 48C36.9 48 40.5 46.8 40.5 45.3333V42.6667C40.5 44.1333 36.9 45.3333 32.5 45.3333Z" fill="#FFA000"/>
<path d="M32.5 49.3333C28.1 49.3333 24.5 48.1333 24.5 46.6667V49.3333C24.5 50.8 28.1 52 32.5 52C36.9 52 40.5 50.8 40.5 49.3333V46.6667C40.5 48.1333 36.9 49.3333 32.5 49.3333Z" fill="#FFA000"/>
<path d="M32.5 53.3333C28.1 53.3333 24.5 52.1333 24.5 50.6667V53.3333C24.5 54.8 28.1 56 32.5 56C36.9 56 40.5 54.8 40.5 53.3333V50.6667C40.5 52.1333 36.9 53.3333 32.5 53.3333Z" fill="#FFA000"/>
<path d="M32.5 33.3333C36.9183 33.3333 40.5 32.1394 40.5 30.6667C40.5 29.1939 36.9183 28 32.5 28C28.0817 28 24.5 29.1939 24.5 30.6667C24.5 32.1394 28.0817 33.3333 32.5 33.3333Z" fill="#FFC107"/>
<path d="M32.5 36C28.7667 36 25.7 35.2 24.7667 34C24.6333 34.2667 24.5 34.4 24.5 34.6667C24.5 36.1333 28.1 37.3333 32.5 37.3333C36.9 37.3333 40.5 36.1333 40.5 34.6667C40.5 34.4 40.3667 34.2667 40.2333 34C39.3 35.2 36.2333 36 32.5 36ZM32.5 40C28.7667 40 25.7 39.2 24.7667 38C24.6333 38.2667 24.5 38.4 24.5 38.6667C24.5 40.1333 28.1 41.3333 32.5 41.3333C36.9 41.3333 40.5 40.1333 40.5 38.6667C40.5 38.4 40.3667 38.2667 40.2333 38C39.3 39.2 36.2333 40 32.5 40ZM32.5 44C28.7667 44 25.7 43.2 24.7667 42C24.6333 42.2667 24.5 42.4 24.5 42.6667C24.5 44.1333 28.1 45.3333 32.5 45.3333C36.9 45.3333 40.5 44.1333 40.5 42.6667C40.5 42.4 40.3667 42.2667 40.2333 42C39.3 43.2 36.2333 44 32.5 44ZM32.5 48C28.7667 48 25.7 47.2 24.7667 46C24.6333 46.2667 24.5 46.4 24.5 46.6667C24.5 48.1333 28.1 49.3333 32.5 49.3333C36.9 49.3333 40.5 48.1333 40.5 46.6667C40.5 46.4 40.3667 46.2667 40.2333 46C39.3 47.2 36.2333 48 32.5 48ZM32.5 52C28.7667 52 25.7 51.2 24.7667 50C24.6333 50.2667 24.5 50.4 24.5 50.6667C24.5 52.1333 28.1 53.3333 32.5 53.3333C36.9 53.3333 40.5 52.1333 40.5 50.6667C40.5 50.4 40.3667 50.2667 40.2333 50C39.3 51.2 36.2333 52 32.5 52Z" fill="#FFC107"/>
</svg>
