<svg width="70" height="64" viewBox="0 0 70 64" fill="none" xmlns="http://www.w3.org/2000/svg">
<path d="M42.1875 57.3333V51.2L45.925 51.8667C50.0938 52.6667 53.975 49.8667 54.2625 46L55.125 37.3333L59.2938 35.7333C60.7313 35.2 61.3063 33.6 60.4438 32.2667L55.125 24C54.2625 13.8667 48.0812 4 32.125 4C15.7375 4 7.6875 15.2 7.6875 26.6667C7.6875 31.6 9.55625 35.8667 12.4313 39.4667C15.0188 42.8 16.3125 46.8 16.3125 50.8V57.2H42.1875V57.3333Z" fill="#FFB74D"/>
<path d="M42.1875 57.3333V51.2L32.125 49.3333V57.3333H42.1875Z" fill="#FF9800"/>
<path d="M48.6562 30.6667C49.8471 30.6667 50.8125 29.7712 50.8125 28.6667C50.8125 27.5621 49.8471 26.6667 48.6562 26.6667C47.4654 26.6667 46.5 27.5621 46.5 28.6667C46.5 29.7712 47.4654 30.6667 48.6562 30.6667Z" fill="#784719"/>
<path d="M31.2625 4C18.1812 4 7.6875 13.7333 7.6875 25.8667C7.6875 40.6667 16.3125 41.0667 16.3125 50.6667L20.05 49.4667C23.0688 48.5333 25.6562 46.4 26.8062 43.6L30.8313 34.5333L39.3125 30.6667V22.6667C39.3125 22.6667 49.375 17.6 49.375 8.93333C45.0625 5.6 37.4438 4 31.2625 4Z" fill="#FA7800"/>
<path d="M30.6875 2.8C29.825 2.8 29.25 3.33334 29.25 4.13334V22.6667C29.25 23.4667 29.825 24 30.6875 24C31.55 24 32.125 23.4667 32.125 22.6667V4.13334C32.125 3.33334 31.55 2.8 30.6875 2.8ZM53.5438 42.5333C42.1875 42.5333 38.7375 36 38.5938 35.7333C38.3062 35.0667 37.4438 34.8 36.725 35.0667C36.0063 35.3333 35.7188 36.1333 36.0063 36.8C36.15 37.2 40.3188 45.2 53.5438 45.2C54.4063 45.2 54.9813 44.6667 54.9813 43.8667C54.9813 43.0667 54.2625 42.5333 53.5438 42.5333Z" fill="#546E7A"/>
<path d="M53.6875 46.6667C55.2753 46.6667 56.5625 45.4728 56.5625 44C56.5625 42.5272 55.2753 41.3333 53.6875 41.3333C52.0997 41.3333 50.8125 42.5272 50.8125 44C50.8125 45.4728 52.0997 46.6667 53.6875 46.6667Z" fill="#37474F"/>
<path d="M30.6875 40C36.2449 40 40.75 35.8213 40.75 30.6667C40.75 25.512 36.2449 21.3333 30.6875 21.3333C25.1301 21.3333 20.625 25.512 20.625 30.6667C20.625 35.8213 25.1301 40 30.6875 40Z" fill="#37474F"/>
<path d="M30.6875 36C33.8631 36 36.4375 33.6122 36.4375 30.6667C36.4375 27.7211 33.8631 25.3333 30.6875 25.3333C27.5119 25.3333 24.9375 27.7211 24.9375 30.6667C24.9375 33.6122 27.5119 36 30.6875 36Z" fill="#546E7A"/>
</svg>
