<svg width="65" height="64" viewBox="0 0 65 64" fill="none" xmlns="http://www.w3.org/2000/svg">
<path d="M53.8333 53.3333C44.6333 53.3333 32.5 58.6667 32.5 58.6667V29.3333C32.5 29.3333 44.5 24 56.5 24L53.8333 53.3333Z" fill="#FA7800"/>
<path d="M11.1667 53.3333C20.3667 53.3333 32.5 58.6667 32.5 58.6667V29.3333C32.5 29.3333 20.5 24 8.5 24L11.1667 53.3333Z" fill="#FC9537"/>
<path d="M32.5 26.6667C38.3911 26.6667 43.1667 21.891 43.1667 16C43.1667 10.109 38.3911 5.33333 32.5 5.33333C26.609 5.33333 21.8334 10.109 21.8334 16C21.8334 21.891 26.609 26.6667 32.5 26.6667Z" fill="#FFB74D"/>
<path d="M55.1667 42.6667H56.5C57.3 42.6667 57.8334 42.1333 57.8334 41.3333V36C57.8334 35.2 57.3 34.6667 56.5 34.6667H55.1667C52.9 34.6667 51.1667 36.4 51.1667 38.6667C51.1667 40.9333 52.9 42.6667 55.1667 42.6667ZM9.83335 34.6667H8.50002C7.70002 34.6667 7.16669 35.2 7.16669 36V41.3333C7.16669 42.1333 7.70002 42.6667 8.50002 42.6667H9.83335C12.1 42.6667 13.8334 40.9333 13.8334 38.6667C13.8334 36.4 12.1 34.6667 9.83335 34.6667Z" fill="#FFB74D"/>
</svg>
