<svg width="19" height="18" viewBox="0 0 19 18" fill="none" xmlns="http://www.w3.org/2000/svg">
<g clip-path="url(#clip0_23_207)">
<path d="M4.25 6.75C4.44891 6.75 4.63968 6.82902 4.78033 6.96967C4.92098 7.11032 5 7.30109 5 7.5C6.17836 7.49826 7.32274 7.8947 8.2475 8.625H9.875C10.8747 8.625 11.7725 9.06 12.3905 9.75H14.75C15.4589 9.7498 16.1534 9.95058 16.7529 10.329C17.3524 10.7075 17.8323 11.2481 18.137 11.8882C16.3633 14.229 13.4915 15.75 10.25 15.75C8.1575 15.75 6.3875 15.2977 4.955 14.5065C4.90253 14.6513 4.80668 14.7764 4.68051 14.8647C4.55435 14.953 4.40401 15.0003 4.25 15H2C1.80109 15 1.61032 14.921 1.46967 14.7803C1.32902 14.6397 1.25 14.4489 1.25 14.25V7.5C1.25 7.30109 1.32902 7.11032 1.46967 6.96967C1.61032 6.82902 1.80109 6.75 2 6.75H4.25ZM5.00075 9L5 12.7665L5.03375 12.7905C6.38 13.7355 8.1335 14.25 10.25 14.25C12.503 14.25 14.5992 13.383 16.1262 11.9025L16.226 11.8028L16.136 11.7278C15.7819 11.4504 15.3526 11.2858 14.9037 11.2552L14.75 11.25H13.1667C13.2207 11.4915 13.25 11.742 13.25 12V12.75H6.5V11.25L11.5925 11.2492L11.567 11.1907C11.4233 10.8904 11.2022 10.6337 10.9264 10.4471C10.6507 10.2605 10.3302 10.1506 9.998 10.1288L9.875 10.125H7.6775C7.32899 9.76854 6.9127 9.48539 6.45314 9.29219C5.99358 9.09898 5.50002 8.99964 5.0015 9H5.00075ZM3.5 8.25H2.75V13.5H3.5V8.25ZM14 3.75C14.5967 3.75 15.169 3.98705 15.591 4.40901C16.0129 4.83097 16.25 5.40326 16.25 6C16.25 6.59674 16.0129 7.16903 15.591 7.59099C15.169 8.01295 14.5967 8.25 14 8.25C13.4033 8.25 12.831 8.01295 12.409 7.59099C11.9871 7.16903 11.75 6.59674 11.75 6C11.75 5.40326 11.9871 4.83097 12.409 4.40901C12.831 3.98705 13.4033 3.75 14 3.75ZM14 5.25C13.8011 5.25 13.6103 5.32902 13.4697 5.46967C13.329 5.61032 13.25 5.80109 13.25 6C13.25 6.19891 13.329 6.38968 13.4697 6.53033C13.6103 6.67098 13.8011 6.75 14 6.75C14.1989 6.75 14.3897 6.67098 14.5303 6.53033C14.671 6.38968 14.75 6.19891 14.75 6C14.75 5.80109 14.671 5.61032 14.5303 5.46967C14.3897 5.32902 14.1989 5.25 14 5.25ZM8.75 1.5C9.34674 1.5 9.91903 1.73705 10.341 2.15901C10.7629 2.58097 11 3.15326 11 3.75C11 4.34674 10.7629 4.91903 10.341 5.34099C9.91903 5.76295 9.34674 6 8.75 6C8.15326 6 7.58097 5.76295 7.15901 5.34099C6.73705 4.91903 6.5 4.34674 6.5 3.75C6.5 3.15326 6.73705 2.58097 7.15901 2.15901C7.58097 1.73705 8.15326 1.5 8.75 1.5V1.5ZM8.75 3C8.55109 3 8.36032 3.07902 8.21967 3.21967C8.07902 3.36032 8 3.55109 8 3.75C8 3.94891 8.07902 4.13968 8.21967 4.28033C8.36032 4.42098 8.55109 4.5 8.75 4.5C8.94891 4.5 9.13968 4.42098 9.28033 4.28033C9.42098 4.13968 9.5 3.94891 9.5 3.75C9.5 3.55109 9.42098 3.36032 9.28033 3.21967C9.13968 3.07902 8.94891 3 8.75 3V3Z" fill="#BFC1CA" stroke="#1F2130" stroke-width="0.5"/>
</g>
<defs>
<clipPath id="clip0_23_207">
<rect width="18" height="18" fill="white" transform="translate(0.5)"/>
</clipPath>
</defs>
</svg>
