<svg width="18" height="18" viewBox="0 0 18 18" fill="none" xmlns="http://www.w3.org/2000/svg">
<g clip-path="url(#clip0_47_1056)">
<path d="M15.75 15C15.75 15.1989 15.671 15.3897 15.5303 15.5304C15.3897 15.671 15.1989 15.75 15 15.75H3C2.80109 15.75 2.61032 15.671 2.46967 15.5304C2.32902 15.3897 2.25 15.1989 2.25 15V7.11752C2.24992 7.00323 2.27596 6.89043 2.32614 6.78775C2.37631 6.68506 2.44929 6.59519 2.5395 6.52502L8.5395 1.85852C8.67116 1.7561 8.8332 1.7005 9 1.7005C9.1668 1.7005 9.32884 1.7561 9.4605 1.85852L15.4605 6.52502C15.5507 6.59519 15.6237 6.68506 15.6739 6.78775C15.724 6.89043 15.7501 7.00323 15.75 7.11752V15ZM8.25 9.75002V14.25H9.75V9.75002H8.25Z" fill="#6A6D7E"/>
</g>
<defs>
<clipPath id="clip0_47_1056">
<rect width="18" height="18" fill="white"/>
</clipPath>
</defs>
</svg>
