<svg width="22" height="22" viewBox="0 0 22 22" fill="none" xmlns="http://www.w3.org/2000/svg">
<g clip-path="url(#clip0_23_236)">
<path d="M16.5283 15.2323L20.4544 19.1575L19.1573 20.4545L15.2322 16.5285C13.7717 17.6992 11.9551 18.336 10.0833 18.3334C5.52925 18.3334 1.83325 14.6374 1.83325 10.0834C1.83325 5.52937 5.52925 1.83337 10.0833 1.83337C14.6373 1.83337 18.3333 5.52937 18.3333 10.0834C18.3359 11.9552 17.6991 13.7718 16.5283 15.2323ZM14.6895 14.5521C15.8529 13.3558 16.5025 11.7521 16.4999 10.0834C16.4999 6.53771 13.628 3.66671 10.0833 3.66671C6.53759 3.66671 3.66659 6.53771 3.66659 10.0834C3.66659 13.6281 6.53759 16.5 10.0833 16.5C11.752 16.5027 13.3556 15.853 14.552 14.6896L14.6895 14.5521V14.5521Z" fill="#1E2130"/>
</g>
<defs>
<clipPath id="clip0_23_236">
<rect width="22" height="22" fill="white"/>
</clipPath>
</defs>
</svg>
