<svg width="24" height="24" viewBox="0 0 24 24" fill="none" xmlns="http://www.w3.org/2000/svg">
<g clip-path="url(#clip0_34_543)">
<path d="M10.9006 2.1001L20.7996 3.5151L22.2136 13.4151L13.0216 22.6071C12.8341 22.7946 12.5797 22.8999 12.3146 22.8999C12.0494 22.8999 11.7951 22.7946 11.6076 22.6071L1.70758 12.7071C1.52011 12.5196 1.41479 12.2653 1.41479 12.0001C1.41479 11.7349 1.52011 11.4806 1.70758 11.2931L10.9006 2.1001ZM11.6076 4.2221L3.82858 12.0001L12.3146 20.4851L20.0926 12.7071L19.0326 5.2821L11.6076 4.2221V4.2221ZM13.7276 10.5861C13.3524 10.2108 13.1417 9.70188 13.1418 9.17124C13.1419 8.9085 13.1937 8.64834 13.2943 8.40562C13.3948 8.16289 13.5423 7.94235 13.7281 7.7566C13.9139 7.57084 14.1345 7.42351 14.3773 7.323C14.62 7.2225 14.8802 7.17079 15.1429 7.17084C15.6736 7.17093 16.1824 7.38182 16.5576 7.7571C16.9327 8.13238 17.1434 8.64132 17.1433 9.17195C17.1432 9.70259 16.9324 10.2114 16.5571 10.5866C16.1818 10.9617 15.6729 11.1725 15.1422 11.1724C14.6116 11.1723 14.1027 10.9614 13.7276 10.5861V10.5861Z" fill="#1E2130"/>
</g>
<defs>
<clipPath id="clip0_34_543">
<rect width="24" height="24" fill="white"/>
</clipPath>
</defs>
</svg>
