<svg width="20" height="21" viewBox="0 0 20 21" fill="none" xmlns="http://www.w3.org/2000/svg">
<g clip-path="url(#clip0_47_1020)">
<path d="M10 14.6667C13.0517 14.6667 15.7208 15.9792 17.1725 17.9375L15.6375 18.6633C14.4558 17.2633 12.3725 16.3333 10 16.3333C7.62751 16.3333 5.54417 17.2633 4.36251 18.6633L2.82834 17.9367C4.28001 15.9783 6.94834 14.6667 10 14.6667ZM10 2.16666C11.1051 2.16666 12.1649 2.60564 12.9463 3.38704C13.7277 4.16845 14.1667 5.22825 14.1667 6.33332V8.83332C14.1666 9.90704 13.7521 10.9393 13.0095 11.7148C12.2669 12.4903 11.2535 12.9492 10.1808 12.9958L10 13C8.89494 13 7.83513 12.561 7.05373 11.7796C6.27233 10.9982 5.83334 9.93839 5.83334 8.83332V6.33332C5.8334 5.2596 6.24796 4.22736 6.99055 3.45184C7.73315 2.67633 8.74646 2.21742 9.81917 2.17082L10 2.16666ZM10 3.83332C9.36233 3.83329 8.74874 4.07693 8.28479 4.51439C7.82083 4.95186 7.54158 5.55008 7.50417 6.18666L7.50001 6.33332V8.83332C7.49938 9.48408 7.75252 10.1094 8.20565 10.5765C8.65877 11.0436 9.27617 11.3156 9.92664 11.3347C10.5771 11.3538 11.2094 11.1185 11.6891 10.6788C12.1689 10.2391 12.4583 9.62966 12.4958 8.97999L12.5 8.83332V6.33332C12.5 5.67028 12.2366 5.0344 11.7678 4.56556C11.2989 4.09672 10.663 3.83332 10 3.83332Z" fill="#818D9D"/>
</g>
<defs>
<clipPath id="clip0_47_1020">
<rect width="20" height="20" fill="white" transform="translate(0 0.5)"/>
</clipPath>
</defs>
</svg>
