<svg width="19" height="19" viewBox="0 0 19 19" fill="none" xmlns="http://www.w3.org/2000/svg">
<g clip-path="url(#clip0_34_2745)">
<path d="M16.25 13.065V15.717C16.2501 15.9069 16.1781 16.0897 16.0487 16.2286C15.9192 16.3676 15.7419 16.4522 15.5525 16.4655C15.2247 16.488 14.957 16.5 14.75 16.5C8.12225 16.5 2.75 11.1278 2.75 4.5C2.75 4.293 2.76125 4.02525 2.7845 3.6975C2.79779 3.50808 2.88244 3.33076 3.02135 3.20131C3.16027 3.07186 3.34312 2.99991 3.533 3H6.185C6.27803 2.99991 6.36777 3.03439 6.4368 3.09677C6.50582 3.15914 6.5492 3.24494 6.5585 3.3375C6.57575 3.51 6.5915 3.64725 6.6065 3.7515C6.75555 4.79169 7.061 5.80337 7.5125 6.75225C7.58375 6.90225 7.53725 7.0815 7.40225 7.1775L5.78375 8.334C6.77334 10.6398 8.61091 12.4774 10.9167 13.467L12.0717 11.8515C12.119 11.7855 12.1878 11.7382 12.2664 11.7177C12.3449 11.6973 12.4281 11.7051 12.5015 11.7397C13.4503 12.1904 14.4617 12.4951 15.5015 12.6435C15.6058 12.6585 15.743 12.675 15.914 12.6915C16.0064 12.701 16.092 12.7444 16.1543 12.8134C16.2165 12.8824 16.2509 12.9721 16.2507 13.065H16.25Z" fill="white"/>
</g>
<defs>
<clipPath id="clip0_34_2745">
<rect width="18" height="18" fill="white" transform="translate(0.5 0.75)"/>
</clipPath>
</defs>
</svg>
