<svg width="18" height="18" viewBox="0 0 18 18" fill="none" xmlns="http://www.w3.org/2000/svg">
<g clip-path="url(#clip0_34_966)">
<path d="M6.9975 8.625H8.625C9.52011 8.625 10.3785 8.98058 11.0115 9.61351C11.6444 10.2465 12 11.1049 12 12H6.74925L6.75 12.75H12.75V12C12.7476 11.202 12.5171 10.4213 12.0855 9.75H14.25C14.9589 9.7498 15.6534 9.95058 16.2529 10.329C16.8524 10.7075 17.3323 11.2481 17.637 11.8883C15.8633 14.229 12.9915 15.75 9.75 15.75C7.67925 15.75 5.925 15.3075 4.5 14.5312V7.55325C5.41246 7.68396 6.27411 8.05371 6.9975 8.625ZM3.75 14.25C3.75 14.4489 3.67098 14.6397 3.53033 14.7803C3.38968 14.921 3.19891 15 3 15H1.5C1.30109 15 1.11032 14.921 0.96967 14.7803C0.829018 14.6397 0.75 14.4489 0.75 14.25V7.5C0.75 7.30109 0.829018 7.11032 0.96967 6.96967C1.11032 6.82902 1.30109 6.75 1.5 6.75H3C3.19891 6.75 3.38968 6.82902 3.53033 6.96967C3.67098 7.11032 3.75 7.30109 3.75 7.5V14.25ZM13.5 3.75C14.0967 3.75 14.669 3.98705 15.091 4.40901C15.5129 4.83097 15.75 5.40326 15.75 6C15.75 6.59674 15.5129 7.16903 15.091 7.59099C14.669 8.01295 14.0967 8.25 13.5 8.25C12.9033 8.25 12.331 8.01295 11.909 7.59099C11.4871 7.16903 11.25 6.59674 11.25 6C11.25 5.40326 11.4871 4.83097 11.909 4.40901C12.331 3.98705 12.9033 3.75 13.5 3.75ZM8.25 1.5C8.84674 1.5 9.41903 1.73705 9.84099 2.15901C10.2629 2.58097 10.5 3.15326 10.5 3.75C10.5 4.34674 10.2629 4.91903 9.84099 5.34099C9.41903 5.76295 8.84674 6 8.25 6C7.65326 6 7.08097 5.76295 6.65901 5.34099C6.23705 4.91903 6 4.34674 6 3.75C6 3.15326 6.23705 2.58097 6.65901 2.15901C7.08097 1.73705 7.65326 1.5 8.25 1.5Z" fill="#1E2130"/>
</g>
<defs>
<clipPath id="clip0_34_966">
<rect width="18" height="18" fill="white"/>
</clipPath>
</defs>
</svg>
