<svg width="18" height="20" viewBox="0 0 18 20" fill="none" xmlns="http://www.w3.org/2000/svg">
<path d="M9 18.5C4.85775 18.5 1.5 15.1423 1.5 11C1.5 6.85775 4.85775 3.5 9 3.5C13.1423 3.5 16.5 6.85775 16.5 11C16.5 15.1423 13.1423 18.5 9 18.5ZM9 17C10.5913 17 12.1174 16.3679 13.2426 15.2426C14.3679 14.1174 15 12.5913 15 11C15 9.4087 14.3679 7.88258 13.2426 6.75736C12.1174 5.63214 10.5913 5 9 5C7.4087 5 5.88258 5.63214 4.75736 6.75736C3.63214 7.88258 3 9.4087 3 11C3 12.5913 3.63214 14.1174 4.75736 15.2426C5.88258 16.3679 7.4087 17 9 17ZM9 14.75C8.00544 14.75 7.05161 14.3549 6.34835 13.6517C5.64509 12.9484 5.25 11.9946 5.25 11C5.25 10.0054 5.64509 9.05161 6.34835 8.34835C7.05161 7.64509 8.00544 7.25 9 7.25C9.99456 7.25 10.9484 7.64509 11.6517 8.34835C12.3549 9.05161 12.75 10.0054 12.75 11C12.75 11.9946 12.3549 12.9484 11.6517 13.6517C10.9484 14.3549 9.99456 14.75 9 14.75Z" fill="#3190FF"/>
</svg>
