<svg width="20" height="21" viewBox="0 0 20 21" fill="none" xmlns="http://www.w3.org/2000/svg">
<g clip-path="url(#clip0_47_1015)">
<path d="M2.50001 3H17.5C17.721 3 17.933 3.0878 18.0893 3.24408C18.2455 3.40036 18.3333 3.61232 18.3333 3.83333V17.1667C18.3333 17.3877 18.2455 17.5996 18.0893 17.7559C17.933 17.9122 17.721 18 17.5 18H2.50001C2.27899 18 2.06703 17.9122 1.91075 17.7559C1.75447 17.5996 1.66667 17.3877 1.66667 17.1667V3.83333C1.66667 3.61232 1.75447 3.40036 1.91075 3.24408C2.06703 3.0878 2.27899 3 2.50001 3ZM16.6667 9.66667H3.33334V16.3333H16.6667V9.66667ZM16.6667 8V4.66667H3.33334V8H16.6667ZM11.6667 13H15V14.6667H11.6667V13Z" fill="#818D9D"/>
</g>
<defs>
<clipPath id="clip0_47_1015">
<rect width="20" height="20" fill="white" transform="translate(0 0.5)"/>
</clipPath>
</defs>
</svg>
