<svg width="21" height="21" viewBox="0 0 21 21" fill="none" xmlns="http://www.w3.org/2000/svg">
<g clip-path="url(#clip0_47_1031)">
<path d="M3.5 3.5H18.5C18.7254 3.5 19.3406 3.34372 19.5 3.5C19.6594 3.65628 19.5 4.27899 19.5 4.5V17.5C19.5 17.721 19.6594 18.3437 19.5 18.5C19.3406 18.6563 18.7254 18.5 18.5 18.5H3.5C3.27457 18.5 2.65941 18.6563 2.5 18.5C2.34059 18.3437 2.5 17.721 2.5 17.5V4.5C2.5 4.27899 2.34059 3.65628 2.5 3.5C2.65941 3.34372 3.27457 3.5 3.5 3.5ZM17.5 7.5L11.5 12.5L4.5 7.5V16.5H17.5V7.5ZM4.5 5.5L11.5 10.5L17.5 5.5H4.5Z" fill="#818D9D"/>
</g>
<defs>
<clipPath id="clip0_47_1031">
<rect width="20" height="20" fill="white" transform="translate(0.5 0.5)"/>
</clipPath>
</defs>
</svg>
