<svg width="18" height="18" viewBox="0 0 18 18" fill="none" xmlns="http://www.w3.org/2000/svg">
<g clip-path="url(#clip0_34_2923)">
<path d="M13.773 13.0229L9 17.7959L4.227 13.0229C3.28301 12.0789 2.64014 10.8762 2.3797 9.56683C2.11925 8.25746 2.25293 6.90026 2.76382 5.66687C3.27472 4.43347 4.13988 3.37927 5.24991 2.63757C6.35994 1.89588 7.66498 1.5 9 1.5C10.335 1.5 11.6401 1.89588 12.7501 2.63757C13.8601 3.37927 14.7253 4.43347 15.2362 5.66687C15.7471 6.90026 15.8808 8.25746 15.6203 9.56683C15.3599 10.8762 14.717 12.0789 13.773 13.0229ZM9 9.74994C9.39783 9.74994 9.77936 9.59191 10.0607 9.3106C10.342 9.0293 10.5 8.64777 10.5 8.24994C10.5 7.85212 10.342 7.47059 10.0607 7.18928C9.77936 6.90798 9.39783 6.74994 9 6.74994C8.60218 6.74994 8.22065 6.90798 7.93934 7.18928C7.65804 7.47059 7.5 7.85212 7.5 8.24994C7.5 8.64777 7.65804 9.0293 7.93934 9.3106C8.22065 9.59191 8.60218 9.74994 9 9.74994Z" fill="#6A6D7E"/>
</g>
<defs>
<clipPath id="clip0_34_2923">
<rect width="18" height="18" fill="white"/>
</clipPath>
</defs>
</svg>
