<svg width="18" height="18" viewBox="0 0 18 18" fill="none" xmlns="http://www.w3.org/2000/svg">
<g clip-path="url(#clip0_34_2918)">
<path d="M15.75 15C15.75 15.1989 15.671 15.3896 15.5303 15.5303C15.3897 15.6709 15.1989 15.75 15 15.75H3C2.80109 15.75 2.61032 15.6709 2.46967 15.5303C2.32902 15.3896 2.25 15.1989 2.25 15V7.11746C2.24992 7.00317 2.27596 6.89037 2.32614 6.78768C2.37631 6.685 2.44929 6.59513 2.5395 6.52496L8.5395 1.85846C8.67116 1.75604 8.8332 1.70044 9 1.70044C9.1668 1.70044 9.32884 1.75604 9.4605 1.85846L15.4605 6.52496C15.5507 6.59513 15.6237 6.685 15.6739 6.78768C15.724 6.89037 15.7501 7.00317 15.75 7.11746V15ZM8.25 9.74996V14.25H9.75V9.74996H8.25Z" fill="#6A6D7E"/>
</g>
<defs>
<clipPath id="clip0_34_2918">
<rect width="18" height="18" fill="white"/>
</clipPath>
</defs>
</svg>
