<svg width="18" height="20" viewBox="0 0 18 20" fill="none" xmlns="http://www.w3.org/2000/svg">
<path d="M9 18.5C4.85775 18.5 1.5 15.1423 1.5 11C1.5 6.85775 4.85775 3.5 9 3.5C13.1423 3.5 16.5 6.85775 16.5 11C16.5 15.1423 13.1423 18.5 9 18.5ZM9 17C10.5913 17 12.1174 16.3679 13.2426 15.2426C14.3679 14.1174 15 12.5913 15 11C15 9.4087 14.3679 7.88258 13.2426 6.75736C12.1174 5.63214 10.5913 5 9 5C7.4087 5 5.88258 5.63214 4.75736 6.75736C3.63214 7.88258 3 9.4087 3 11C3 12.5913 3.63214 14.1174 4.75736 15.2426C5.88258 16.3679 7.4087 17 9 17Z" fill="#818D9D"/>
</svg>
