<svg width="20" height="21" viewBox="0 0 20 21" fill="none" xmlns="http://www.w3.org/2000/svg">
<g clip-path="url(#clip0_47_1026)">
<path d="M14.1667 3.00001H17.5C17.721 3.00001 17.933 3.08781 18.0893 3.24409C18.2455 3.40037 18.3333 3.61233 18.3333 3.83334V17.1667C18.3333 17.3877 18.2455 17.5997 18.0893 17.7559C17.933 17.9122 17.721 18 17.5 18H2.50001C2.27899 18 2.06703 17.9122 1.91075 17.7559C1.75447 17.5997 1.66667 17.3877 1.66667 17.1667V3.83334C1.66667 3.61233 1.75447 3.40037 1.91075 3.24409C2.06703 3.08781 2.27899 3.00001 2.50001 3.00001H5.83334V1.33334H7.5V3.00001H12.5V1.33334H14.1667V3.00001ZM12.5 4.66668H7.5V6.33334H5.83334V4.66668H3.33334V8.00001H16.6667V4.66668H14.1667V6.33334H12.5V4.66668ZM16.6667 9.66668H3.33334V16.3333H16.6667V9.66668Z" fill="#818D9D"/>
</g>
<defs>
<clipPath id="clip0_47_1026">
<rect width="20" height="20" fill="white" transform="translate(0 0.5)"/>
</clipPath>
</defs>
</svg>
