<svg width="35" height="7" viewBox="0 0 35 7" fill="none" xmlns="http://www.w3.org/2000/svg">
<path d="M5.50648 3.75065C5.50648 4.48974 5.28776 5.07801 4.84942 5.51723C4.35199 6.03935 3.70287 6.30041 2.90557 6.30041C2.14179 6.30041 1.49179 6.03582 0.958199 5.50664C0.423729 4.97658 0.156494 4.3204 0.156494 3.53722C0.156494 2.75315 0.423729 2.09697 0.958199 1.56779C1.49179 1.03773 2.14179 0.773147 2.90557 0.773147C3.28482 0.773147 3.64731 0.847231 3.99127 0.994519C4.33612 1.14269 4.61217 1.33937 4.81855 1.58543L4.35376 2.05111C4.00362 1.63218 3.52118 1.42315 2.90469 1.42315C2.34729 1.42315 1.86574 1.61895 1.45915 2.01054C1.05257 2.40213 0.849717 2.91103 0.849717 3.53634C0.849717 4.16165 1.05257 4.67054 1.45915 5.06213C1.86574 5.45373 2.34729 5.64952 2.90469 5.64952C3.49561 5.64952 3.98863 5.45284 4.38286 5.05861C4.63863 4.80195 4.7868 4.44476 4.82649 3.98702H2.90469V3.35113H5.46856C5.49502 3.48959 5.50648 3.62277 5.50648 3.75065Z" fill="#101010"/>
<path d="M9.57242 1.5405H7.1629V3.218H9.33605V3.8539H7.1629V5.53139H9.57242V6.18228H6.4829V0.890497H9.57242V1.5405Z" fill="#101010"/>
<path d="M12.4396 6.18228H11.7596V1.5405H10.2814V0.890497H13.9178V1.5405H12.4396V6.18228Z" fill="#101010"/>
<path d="M16.5486 6.18228V0.890497H17.2286V6.18228H16.5486Z" fill="#101010"/>
<path d="M20.2442 6.18228H19.5642V1.5405H18.086V0.890497H21.7224V1.5405H20.2442V6.18228Z" fill="#101010"/>
<path d="M28.6059 5.49875C28.0855 6.03322 27.439 6.30045 26.6656 6.30045C25.8921 6.30045 25.2456 6.03322 24.7261 5.49875C24.2058 4.96428 23.9465 4.30986 23.9465 3.53638C23.9465 2.7629 24.2058 2.10848 24.7261 1.57401C25.2456 1.03954 25.8921 0.771423 26.6656 0.771423C27.4346 0.771423 28.0802 1.04042 28.6024 1.57754C29.1245 2.11465 29.3855 2.76731 29.3855 3.53638C29.3855 4.30986 29.1254 4.96428 28.6059 5.49875ZM25.228 5.05512C25.6196 5.452 26.0985 5.64956 26.6656 5.64956C27.2327 5.64956 27.7125 5.45112 28.1032 5.05512C28.4948 4.65824 28.6914 4.15199 28.6914 3.53638C28.6914 2.92077 28.4948 2.41452 28.1032 2.01764C27.7125 1.62075 27.2327 1.42319 26.6656 1.42319C26.0985 1.42319 25.6196 1.62164 25.228 2.01764C24.8372 2.41452 24.6406 2.92077 24.6406 3.53638C24.6406 4.15199 24.8372 4.65824 25.228 5.05512Z" fill="#101010"/>
<path d="M30.3398 6.18228V0.890497H31.1671L33.7389 5.00662H33.768L33.7389 3.98707V0.890497H34.4189V6.18228H33.7089L31.0181 1.86595H30.989L31.0181 2.8855V6.18228H30.3398Z" fill="#101010"/>
<path d="M5.50648 3.75065C5.50648 4.48974 5.28776 5.07801 4.84942 5.51723C4.35199 6.03935 3.70287 6.30041 2.90557 6.30041C2.14179 6.30041 1.49179 6.03582 0.958199 5.50664C0.423729 4.97658 0.156494 4.3204 0.156494 3.53722C0.156494 2.75315 0.423729 2.09697 0.958199 1.56779C1.49179 1.03773 2.14179 0.773147 2.90557 0.773147C3.28482 0.773147 3.64731 0.847231 3.99127 0.994519C4.33612 1.14269 4.61217 1.33937 4.81855 1.58543L4.35376 2.05111C4.00362 1.63218 3.52118 1.42315 2.90469 1.42315C2.34729 1.42315 1.86574 1.61895 1.45915 2.01054C1.05257 2.40213 0.849717 2.91103 0.849717 3.53634C0.849717 4.16165 1.05257 4.67054 1.45915 5.06213C1.86574 5.45373 2.34729 5.64952 2.90469 5.64952C3.49561 5.64952 3.98863 5.45284 4.38286 5.05861C4.63863 4.80195 4.7868 4.44476 4.82649 3.98702H2.90469V3.35113H5.46856C5.49502 3.48959 5.50648 3.62277 5.50648 3.75065Z" stroke="#101010" stroke-width="0.176393" stroke-miterlimit="10"/>
<path d="M9.57242 1.5405H7.1629V3.218H9.33605V3.8539H7.1629V5.53139H9.57242V6.18228H6.4829V0.890497H9.57242V1.5405Z" stroke="#101010" stroke-width="0.176393" stroke-miterlimit="10"/>
<path d="M12.4396 6.18228H11.7596V1.5405H10.2814V0.890497H13.9178V1.5405H12.4396V6.18228Z" stroke="#101010" stroke-width="0.176393" stroke-miterlimit="10"/>
<path d="M16.5486 6.18228V0.890497H17.2286V6.18228H16.5486Z" stroke="#101010" stroke-width="0.176393" stroke-miterlimit="10"/>
<path d="M20.2442 6.18228H19.5642V1.5405H18.086V0.890497H21.7224V1.5405H20.2442V6.18228Z" stroke="#101010" stroke-width="0.176393" stroke-miterlimit="10"/>
<path d="M28.6059 5.49875C28.0855 6.03322 27.439 6.30045 26.6656 6.30045C25.8921 6.30045 25.2456 6.03322 24.7261 5.49875C24.2058 4.96428 23.9465 4.30986 23.9465 3.53638C23.9465 2.7629 24.2058 2.10848 24.7261 1.57401C25.2456 1.03954 25.8921 0.771423 26.6656 0.771423C27.4346 0.771423 28.0802 1.04042 28.6024 1.57754C29.1245 2.11465 29.3855 2.76731 29.3855 3.53638C29.3855 4.30986 29.1254 4.96428 28.6059 5.49875ZM25.228 5.05512C25.6196 5.452 26.0985 5.64956 26.6656 5.64956C27.2327 5.64956 27.7125 5.45112 28.1032 5.05512C28.4948 4.65824 28.6914 4.15199 28.6914 3.53638C28.6914 2.92077 28.4948 2.41452 28.1032 2.01764C27.7125 1.62075 27.2327 1.42319 26.6656 1.42319C26.0985 1.42319 25.6196 1.62164 25.228 2.01764C24.8372 2.41452 24.6406 2.92077 24.6406 3.53638C24.6406 4.15199 24.8372 4.65824 25.228 5.05512Z" stroke="#101010" stroke-width="0.176393" stroke-miterlimit="10"/>
<path d="M30.3398 6.18228V0.890497H31.1671L33.7389 5.00662H33.768L33.7389 3.98707V0.890497H34.4189V6.18228H33.7089L31.0181 1.86595H30.989L31.0181 2.8855V6.18228H30.3398Z" stroke="#101010" stroke-width="0.176393" stroke-miterlimit="10"/>
</svg>
