<svg width="35" height="7" viewBox="0 0 35 7" fill="none" xmlns="http://www.w3.org/2000/svg">
<path d="M5.50648 3.75072C5.50648 4.4898 5.28776 5.07807 4.84942 5.51729C4.35199 6.03941 3.70287 6.30047 2.90557 6.30047C2.14179 6.30047 1.49179 6.03588 0.958199 5.5067C0.423729 4.97664 0.156494 4.32046 0.156494 3.53728C0.156494 2.75321 0.423729 2.09703 0.958199 1.56786C1.49179 1.0378 2.14179 0.773208 2.90557 0.773208C3.28482 0.773208 3.64731 0.847292 3.99127 0.99458C4.33612 1.14275 4.61217 1.33943 4.81855 1.5855L4.35376 2.05117C4.00362 1.63224 3.52118 1.42321 2.90469 1.42321C2.34729 1.42321 1.86574 1.61901 1.45915 2.0106C1.05257 2.40219 0.849717 2.91109 0.849717 3.5364C0.849717 4.16171 1.05257 4.6706 1.45915 5.06219C1.86574 5.45379 2.34729 5.64958 2.90469 5.64958C3.49561 5.64958 3.98863 5.45291 4.38286 5.05867C4.63863 4.80202 4.7868 4.44482 4.82649 3.98708H2.90469V3.35119H5.46856C5.49502 3.48966 5.50648 3.62283 5.50648 3.75072Z" fill="#101010"/>
<path d="M9.57242 1.54056H7.1629V3.21806H9.33605V3.85396H7.1629V5.53145H9.57242V6.18234H6.4829V0.890558H9.57242V1.54056Z" fill="#101010"/>
<path d="M12.4396 6.18234H11.7596V1.54056H10.2814V0.890558H13.9178V1.54056H12.4396V6.18234Z" fill="#101010"/>
<path d="M16.5486 6.18234V0.890558H17.2286V6.18234H16.5486Z" fill="#101010"/>
<path d="M20.2442 6.18234H19.5642V1.54056H18.086V0.890558H21.7224V1.54056H20.2442V6.18234Z" fill="#101010"/>
<path d="M28.6059 5.49881C28.0855 6.03328 27.439 6.30051 26.6656 6.30051C25.8921 6.30051 25.2456 6.03328 24.7261 5.49881C24.2058 4.96434 23.9465 4.30992 23.9465 3.53644C23.9465 2.76296 24.2058 2.10854 24.7261 1.57407C25.2456 1.0396 25.8921 0.771484 26.6656 0.771484C27.4346 0.771484 28.0802 1.04048 28.6024 1.5776C29.1245 2.11471 29.3855 2.76737 29.3855 3.53644C29.3855 4.30992 29.1254 4.96434 28.6059 5.49881ZM25.228 5.05518C25.6196 5.45206 26.0985 5.64962 26.6656 5.64962C27.2327 5.64962 27.7125 5.45118 28.1032 5.05518C28.4948 4.6583 28.6914 4.15205 28.6914 3.53644C28.6914 2.92083 28.4948 2.41458 28.1032 2.0177C27.7125 1.62082 27.2327 1.42326 26.6656 1.42326C26.0985 1.42326 25.6196 1.6217 25.228 2.0177C24.8372 2.41458 24.6406 2.92083 24.6406 3.53644C24.6406 4.15205 24.8372 4.6583 25.228 5.05518Z" fill="#101010"/>
<path d="M30.3398 6.18234V0.890558H31.1671L33.7389 5.00668H33.768L33.7389 3.98713V0.890558H34.4189V6.18234H33.7089L31.0181 1.86601H30.989L31.0181 2.88556V6.18234H30.3398Z" fill="#101010"/>
<path d="M5.50648 3.75072C5.50648 4.4898 5.28776 5.07807 4.84942 5.51729C4.35199 6.03941 3.70287 6.30047 2.90557 6.30047C2.14179 6.30047 1.49179 6.03588 0.958199 5.5067C0.423729 4.97664 0.156494 4.32046 0.156494 3.53728C0.156494 2.75321 0.423729 2.09703 0.958199 1.56786C1.49179 1.0378 2.14179 0.773208 2.90557 0.773208C3.28482 0.773208 3.64731 0.847292 3.99127 0.99458C4.33612 1.14275 4.61217 1.33943 4.81855 1.5855L4.35376 2.05117C4.00362 1.63224 3.52118 1.42321 2.90469 1.42321C2.34729 1.42321 1.86574 1.61901 1.45915 2.0106C1.05257 2.40219 0.849717 2.91109 0.849717 3.5364C0.849717 4.16171 1.05257 4.6706 1.45915 5.06219C1.86574 5.45379 2.34729 5.64958 2.90469 5.64958C3.49561 5.64958 3.98863 5.45291 4.38286 5.05867C4.63863 4.80202 4.7868 4.44482 4.82649 3.98708H2.90469V3.35119H5.46856C5.49502 3.48966 5.50648 3.62283 5.50648 3.75072Z" stroke="#101010" stroke-width="0.176393" stroke-miterlimit="10"/>
<path d="M9.57242 1.54056H7.1629V3.21806H9.33605V3.85396H7.1629V5.53145H9.57242V6.18234H6.4829V0.890558H9.57242V1.54056Z" stroke="#101010" stroke-width="0.176393" stroke-miterlimit="10"/>
<path d="M12.4396 6.18234H11.7596V1.54056H10.2814V0.890558H13.9178V1.54056H12.4396V6.18234Z" stroke="#101010" stroke-width="0.176393" stroke-miterlimit="10"/>
<path d="M16.5486 6.18234V0.890558H17.2286V6.18234H16.5486Z" stroke="#101010" stroke-width="0.176393" stroke-miterlimit="10"/>
<path d="M20.2442 6.18234H19.5642V1.54056H18.086V0.890558H21.7224V1.54056H20.2442V6.18234Z" stroke="#101010" stroke-width="0.176393" stroke-miterlimit="10"/>
<path d="M28.6059 5.49881C28.0855 6.03328 27.439 6.30051 26.6656 6.30051C25.8921 6.30051 25.2456 6.03328 24.7261 5.49881C24.2058 4.96434 23.9465 4.30992 23.9465 3.53644C23.9465 2.76296 24.2058 2.10854 24.7261 1.57407C25.2456 1.0396 25.8921 0.771484 26.6656 0.771484C27.4346 0.771484 28.0802 1.04048 28.6024 1.5776C29.1245 2.11471 29.3855 2.76737 29.3855 3.53644C29.3855 4.30992 29.1254 4.96434 28.6059 5.49881ZM25.228 5.05518C25.6196 5.45206 26.0985 5.64962 26.6656 5.64962C27.2327 5.64962 27.7125 5.45118 28.1032 5.05518C28.4948 4.6583 28.6914 4.15205 28.6914 3.53644C28.6914 2.92083 28.4948 2.41458 28.1032 2.0177C27.7125 1.62082 27.2327 1.42326 26.6656 1.42326C26.0985 1.42326 25.6196 1.6217 25.228 2.0177C24.8372 2.41458 24.6406 2.92083 24.6406 3.53644C24.6406 4.15205 24.8372 4.6583 25.228 5.05518Z" stroke="#101010" stroke-width="0.176393" stroke-miterlimit="10"/>
<path d="M30.3398 6.18234V0.890558H31.1671L33.7389 5.00668H33.768L33.7389 3.98713V0.890558H34.4189V6.18234H33.7089L31.0181 1.86601H30.989L31.0181 2.88556V6.18234H30.3398Z" stroke="#101010" stroke-width="0.176393" stroke-miterlimit="10"/>
</svg>
