<svg width="75" height="16" viewBox="0 0 75 16" fill="none" xmlns="http://www.w3.org/2000/svg">
<path d="M24.0524 4.44923C21.978 4.44923 20.2873 6.02707 20.2873 8.20022C20.2873 10.3602 21.978 11.9512 24.0524 11.9512C26.1277 11.9512 27.8184 10.3602 27.8184 8.20022C27.8175 6.02707 26.1268 4.44923 24.0524 4.44923ZM24.0524 10.4748C22.9156 10.4748 21.9357 9.53728 21.9357 8.20111C21.9357 6.85082 22.9164 5.9274 24.0524 5.9274C25.1893 5.9274 26.1691 6.85082 26.1691 8.20111C26.1691 9.5364 25.1893 10.4748 24.0524 10.4748ZM15.8378 4.44923C13.7634 4.44923 12.0727 6.02707 12.0727 8.20022C12.0727 10.3602 13.7634 11.9512 15.8378 11.9512C17.9131 11.9512 19.6038 10.3602 19.6038 8.20022C19.6038 6.02707 17.9131 4.44923 15.8378 4.44923ZM15.8378 10.4748C14.701 10.4748 13.7211 9.53728 13.7211 8.20111C13.7211 6.85082 14.7018 5.9274 15.8378 5.9274C16.9747 5.9274 17.9545 6.85082 17.9545 8.20111C17.9554 9.5364 16.9747 10.4748 15.8378 10.4748ZM6.06741 5.60108V7.19214H9.87573C9.76196 8.08733 9.46385 8.74087 9.00876 9.19508C8.45489 9.74895 7.58792 10.3602 6.06741 10.3602C3.72315 10.3602 1.89043 8.4701 1.89043 6.12585C1.89043 3.78159 3.72315 1.89154 6.06741 1.89154C7.33215 1.89154 8.25557 2.38897 8.93732 3.02839L10.0601 1.90565C9.10754 0.996346 7.84369 0.300477 6.06741 0.300477C2.85618 0.300477 0.156494 2.91462 0.156494 6.12585C0.156494 9.33707 2.85618 11.9512 6.06741 11.9512C7.80047 11.9512 9.10843 11.3823 10.1306 10.3169C11.1819 9.26563 11.5091 7.78746 11.5091 6.59417C11.5091 6.22551 11.4809 5.88419 11.4236 5.60019H6.06741V5.60108ZM46.0274 6.83671C45.7152 5.99884 44.7627 4.44923 42.8162 4.44923C40.8838 4.44923 39.2778 5.96974 39.2778 8.20022C39.2778 10.3028 40.8697 11.9512 43.0005 11.9512C44.7195 11.9512 45.7143 10.8999 46.1271 10.2887L44.8482 9.43585C44.4222 10.0612 43.8393 10.473 43.0005 10.473C42.1627 10.473 41.5656 10.0894 41.1819 9.33619L46.1976 7.26181L46.0274 6.83671ZM40.912 8.08733C40.8697 6.63738 42.0348 5.89918 42.8735 5.89918C43.5271 5.89918 44.0809 6.22639 44.2661 6.69471L40.912 8.08733ZM36.8347 11.7245H38.4822V0.699124H36.8347V11.7245ZM34.1341 5.28798H34.0777C33.7081 4.847 32.9973 4.44923 32.103 4.44923C30.227 4.44923 28.5081 6.09762 28.5081 8.21522C28.5081 10.3178 30.227 11.9521 32.103 11.9521C32.9982 11.9521 33.7081 11.5543 34.0777 11.1001H34.1341V11.6399C34.1341 13.0748 33.3668 13.8421 32.1312 13.8421C31.1222 13.8421 30.4969 13.1181 30.2412 12.5069L28.8062 13.1039C29.2181 14.0979 30.3117 15.3203 32.1312 15.3203C34.0636 15.3203 35.6979 14.1835 35.6979 11.4123V4.67766H34.135V5.28798H34.1341ZM32.245 10.4748C31.1081 10.4748 30.1565 9.52229 30.1565 8.21522C30.1565 6.89315 31.1081 5.9274 32.245 5.9274C33.3668 5.9274 34.2479 6.89315 34.2479 8.21522C34.2479 9.52229 33.3668 10.4748 32.245 10.4748ZM53.7481 0.699124H49.8049V11.7245H51.4497V7.54757H53.7472C55.5711 7.54757 57.3651 6.22727 57.3651 4.12379C57.3651 2.0203 55.572 0.699124 53.7481 0.699124ZM53.7905 6.01295H51.4497V2.23374H53.7905C55.0208 2.23374 55.7193 3.25241 55.7193 4.12379C55.7193 4.97753 55.0208 6.01295 53.7905 6.01295ZM63.9613 4.42983C62.7697 4.42983 61.5359 4.9546 61.0252 6.11791L62.4857 6.72734C62.798 6.11791 63.3801 5.91858 63.9895 5.91858C64.8406 5.91858 65.7058 6.42924 65.7199 7.33678V7.45055C65.4218 7.28033 64.7833 7.02545 64.0036 7.02545C62.4293 7.02545 60.8259 7.89065 60.8259 9.50729C60.8259 10.9828 62.1171 11.9327 63.5635 11.9327C64.6695 11.9327 65.2798 11.4361 65.6626 10.8541H65.719V11.7051H67.3083V7.4779C67.3092 5.5217 65.8469 4.42983 63.9613 4.42983ZM63.7619 10.4722C63.2239 10.4722 62.4716 10.2023 62.4716 9.53552C62.4716 8.68442 63.4083 8.35809 64.217 8.35809C64.9394 8.35809 65.2807 8.5142 65.7199 8.72676C65.592 9.74895 64.7127 10.4722 63.7619 10.4722ZM73.0958 4.6706L71.2092 9.45085H71.1528L69.1948 4.6706H67.4221L70.3582 11.3515L68.6842 15.0681H70.4005L74.9258 4.6706H73.0958ZM58.2735 11.7245H59.9183V0.699124H58.2735V11.7245Z" fill="#101010"/>
</svg>
