<svg width="75" height="16" viewBox="0 0 75 16" fill="none" xmlns="http://www.w3.org/2000/svg">
<path d="M24.0523 4.4492C21.9779 4.4492 20.2872 6.02704 20.2872 8.20019C20.2872 10.3601 21.9779 11.9512 24.0523 11.9512C26.1276 11.9512 27.8183 10.3601 27.8183 8.20019C27.8174 6.02704 26.1267 4.4492 24.0523 4.4492ZM24.0523 10.4748C22.9155 10.4748 21.9356 9.53725 21.9356 8.20108C21.9356 6.85079 22.9164 5.92737 24.0523 5.92737C25.1892 5.92737 26.169 6.85079 26.169 8.20108C26.169 9.53637 25.1892 10.4748 24.0523 10.4748ZM15.8377 4.4492C13.7633 4.4492 12.0726 6.02704 12.0726 8.20019C12.0726 10.3601 13.7633 11.9512 15.8377 11.9512C17.913 11.9512 19.6037 10.3601 19.6037 8.20019C19.6037 6.02704 17.913 4.4492 15.8377 4.4492ZM15.8377 10.4748C14.7009 10.4748 13.721 9.53725 13.721 8.20108C13.721 6.85079 14.7017 5.92737 15.8377 5.92737C16.9746 5.92737 17.9544 6.85079 17.9544 8.20108C17.9553 9.53637 16.9746 10.4748 15.8377 10.4748ZM6.06732 5.60105V7.19211H9.87564C9.76187 8.0873 9.46376 8.74084 9.00867 9.19505C8.4548 9.74892 7.58783 10.3601 6.06732 10.3601C3.72306 10.3601 1.89034 8.47007 1.89034 6.12581C1.89034 3.78156 3.72306 1.89151 6.06732 1.89151C7.33206 1.89151 8.25548 2.38893 8.93723 3.02836L10.06 1.90562C9.10745 0.996315 7.8436 0.300446 6.06732 0.300446C2.85609 0.300446 0.156402 2.91459 0.156402 6.12581C0.156402 9.33704 2.85609 11.9512 6.06732 11.9512C7.80038 11.9512 9.10833 11.3823 10.1305 10.3169C11.1818 9.2656 11.509 7.78743 11.509 6.59414C11.509 6.22548 11.4808 5.88416 11.4235 5.60016H6.06732V5.60105ZM46.0273 6.83668C45.7151 5.99881 44.7626 4.4492 42.8161 4.4492C40.8837 4.4492 39.2777 5.96971 39.2777 8.20019C39.2777 10.3028 40.8696 11.9512 43.0004 11.9512C44.7194 11.9512 45.7142 10.8999 46.127 10.2887L44.8481 9.43582C44.4221 10.0611 43.8392 10.473 43.0004 10.473C42.1626 10.473 41.5655 10.0894 41.1818 9.33616L46.1975 7.26178L46.0273 6.83668ZM40.9119 8.0873C40.8696 6.63735 42.0347 5.89915 42.8734 5.89915C43.527 5.89915 44.0808 6.22636 44.266 6.69468L40.9119 8.0873ZM36.8346 11.7245H38.4821V0.699094H36.8346V11.7245ZM34.134 5.28795H34.0776C33.7081 4.84697 32.9972 4.4492 32.1029 4.4492C30.2269 4.4492 28.508 6.09759 28.508 8.21519C28.508 10.3178 30.2269 11.9521 32.1029 11.9521C32.9981 11.9521 33.7081 11.5543 34.0776 11.1001H34.134V11.6398C34.134 13.0748 33.3667 13.8421 32.1311 13.8421C31.1221 13.8421 30.4968 13.118 30.2411 12.5068L28.8061 13.1039C29.218 14.0979 30.3116 15.3203 32.1311 15.3203C34.0635 15.3203 35.6978 14.1834 35.6978 11.4123V4.67763H34.1349V5.28795H34.134ZM32.2449 10.4748C31.108 10.4748 30.1564 9.52226 30.1564 8.21519C30.1564 6.89312 31.108 5.92737 32.2449 5.92737C33.3667 5.92737 34.2478 6.89312 34.2478 8.21519C34.2478 9.52226 33.3667 10.4748 32.2449 10.4748ZM53.748 0.699094H49.8048V11.7245H51.4496V7.54754H53.7472C55.5711 7.54754 57.365 6.22724 57.365 4.12376C57.365 2.02027 55.5719 0.699094 53.748 0.699094ZM53.7904 6.01292H51.4496V2.23371H53.7904C55.0207 2.23371 55.7192 3.25238 55.7192 4.12376C55.7192 4.9775 55.0207 6.01292 53.7904 6.01292ZM63.9612 4.4298C62.7696 4.4298 61.5358 4.95457 61.0251 6.11788L62.4856 6.72731C62.7979 6.11788 63.38 5.91855 63.9894 5.91855C64.8405 5.91855 65.7057 6.42921 65.7198 7.33675V7.45052C65.4217 7.2803 64.7832 7.02542 64.0035 7.02542C62.4292 7.02542 60.8258 7.89062 60.8258 9.50726C60.8258 10.9828 62.117 11.9327 63.5634 11.9327C64.6694 11.9327 65.2797 11.4361 65.6625 10.854H65.7189V11.7051H67.3082V7.47787C67.3091 5.52167 65.8468 4.4298 63.9612 4.4298ZM63.7619 10.4721C63.2239 10.4721 62.4715 10.2023 62.4715 9.53549C62.4715 8.68439 63.4082 8.35806 64.2169 8.35806C64.9393 8.35806 65.2806 8.51417 65.7198 8.72673C65.5919 9.74892 64.7126 10.4721 63.7619 10.4721ZM73.0957 4.67057L71.2092 9.45082H71.1527L69.1948 4.67057H67.422L70.3581 11.3514L68.6841 15.068H70.4004L74.9257 4.67057H73.0957ZM58.2734 11.7245H59.9183V0.699094H58.2734V11.7245Z" fill="#101010"/>
</svg>
