<svg width="22" height="24" viewBox="0 0 22 24" fill="none" xmlns="http://www.w3.org/2000/svg">
<g filter="url(#filter0_ii_1_1658)">
<path d="M1.20132 1.12139C0.944667 1.39303 0.792968 1.81461 0.792968 2.36055V21.8661C0.792968 22.4129 0.944667 22.8336 1.20132 23.1052L1.26658 23.1687L12.1932 12.2421V12.1133V11.9845L1.26658 1.05701L1.20132 1.12139Z" fill="url(#paint0_linear_1_1658)"/>
<path d="M15.834 15.8856L12.1924 12.2422V12.1134V11.9847L15.8349 8.34216L15.9169 8.38891L20.2324 10.8408C21.4645 11.541 21.4645 12.6867 20.2324 13.3879L15.9169 15.8397L15.834 15.8856Z" fill="url(#paint1_linear_1_1658)"/>
<g filter="url(#filter1_i_1_1658)">
<path d="M15.9176 15.8389L12.1922 12.1135L1.20117 23.1054C1.60688 23.5358 2.27805 23.5888 3.03389 23.1601L15.9176 15.8389Z" fill="url(#paint2_linear_1_1658)"/>
</g>
<path d="M15.9176 8.38807L3.03389 1.06777C2.27805 0.638252 1.60688 0.692052 1.20117 1.12245L12.1931 12.1144L15.9176 8.38807Z" fill="url(#paint3_linear_1_1658)"/>
</g>
<defs>
<filter id="filter0_ii_1_1658" x="0.792969" y="0.771362" width="20.3635" height="22.6848" filterUnits="userSpaceOnUse" color-interpolation-filters="sRGB">
<feFlood flood-opacity="0" result="BackgroundImageFix"/>
<feBlend mode="normal" in="SourceGraphic" in2="BackgroundImageFix" result="shape"/>
<feColorMatrix in="SourceAlpha" type="matrix" values="0 0 0 0 0 0 0 0 0 0 0 0 0 0 0 0 0 0 127 0" result="hardAlpha"/>
<feOffset dy="-0.132295"/>
<feComposite in2="hardAlpha" operator="arithmetic" k2="-1" k3="1"/>
<feColorMatrix type="matrix" values="0 0 0 0 0 0 0 0 0 0 0 0 0 0 0 0 0 0 0.12 0"/>
<feBlend mode="normal" in2="shape" result="effect1_innerShadow_1_1658"/>
<feColorMatrix in="SourceAlpha" type="matrix" values="0 0 0 0 0 0 0 0 0 0 0 0 0 0 0 0 0 0 127 0" result="hardAlpha"/>
<feOffset dy="0.132295"/>
<feComposite in2="hardAlpha" operator="arithmetic" k2="-1" k3="1"/>
<feColorMatrix type="matrix" values="0 0 0 0 1 0 0 0 0 1 0 0 0 0 1 0 0 0 0.25 0"/>
<feBlend mode="normal" in2="effect1_innerShadow_1_1658" result="effect2_innerShadow_1_1658"/>
</filter>
<filter id="filter1_i_1_1658" x="1.20117" y="12.1135" width="14.7164" height="11.3427" filterUnits="userSpaceOnUse" color-interpolation-filters="sRGB">
<feFlood flood-opacity="0" result="BackgroundImageFix"/>
<feBlend mode="normal" in="SourceGraphic" in2="BackgroundImageFix" result="shape"/>
<feColorMatrix in="SourceAlpha" type="matrix" values="0 0 0 0 0 0 0 0 0 0 0 0 0 0 0 0 0 0 127 0" result="hardAlpha"/>
<feOffset dy="-0.132295"/>
<feComposite in2="hardAlpha" operator="arithmetic" k2="-1" k3="1"/>
<feColorMatrix type="matrix" values="0 0 0 0 0 0 0 0 0 0 0 0 0 0 0 0 0 0 0.08 0"/>
<feBlend mode="normal" in2="shape" result="effect1_innerShadow_1_1658"/>
</filter>
<linearGradient id="paint0_linear_1_1658" x1="11.2247" y1="2.15417" x2="-3.57645" y2="16.9553" gradientUnits="userSpaceOnUse">
<stop stop-color="#00A0FF"/>
<stop offset="0.0066" stop-color="#00A1FF"/>
<stop offset="0.2601" stop-color="#00BEFF"/>
<stop offset="0.5122" stop-color="#00D2FF"/>
<stop offset="0.7604" stop-color="#00DFFF"/>
<stop offset="1" stop-color="#00E3FF"/>
</linearGradient>
<linearGradient id="paint1_linear_1_1658" x1="21.8362" y1="12.1134" x2="0.496313" y2="12.1134" gradientUnits="userSpaceOnUse">
<stop stop-color="#FFE000"/>
<stop offset="0.4087" stop-color="#FFBD00"/>
<stop offset="0.7754" stop-color="#FFA500"/>
<stop offset="1" stop-color="#FF9C00"/>
</linearGradient>
<linearGradient id="paint2_linear_1_1658" x1="13.8945" y1="14.1367" x2="-6.17768" y2="34.2088" gradientUnits="userSpaceOnUse">
<stop stop-color="#FF3A44"/>
<stop offset="1" stop-color="#C31162"/>
</linearGradient>
<linearGradient id="paint3_linear_1_1658" x1="-1.56696" y1="-5.37074" x2="7.39582" y2="3.59204" gradientUnits="userSpaceOnUse">
<stop stop-color="#32A071"/>
<stop offset="0.0685" stop-color="#2DA771"/>
<stop offset="0.4762" stop-color="#15CF74"/>
<stop offset="0.8009" stop-color="#06E775"/>
<stop offset="1" stop-color="#00F076"/>
</linearGradient>
</defs>
</svg>
