<svg width="75" height="16" viewBox="0 0 75 16" fill="none" xmlns="http://www.w3.org/2000/svg">
<path d="M24.0524 4.44929C21.978 4.44929 20.2873 6.02713 20.2873 8.20029C20.2873 10.3602 21.978 11.9513 24.0524 11.9513C26.1277 11.9513 27.8184 10.3602 27.8184 8.20029C27.8175 6.02713 26.1268 4.44929 24.0524 4.44929ZM24.0524 10.4749C22.9156 10.4749 21.9357 9.53734 21.9357 8.20117C21.9357 6.85088 22.9164 5.92746 24.0524 5.92746C25.1893 5.92746 26.1691 6.85088 26.1691 8.20117C26.1691 9.53646 25.1893 10.4749 24.0524 10.4749ZM15.8378 4.44929C13.7634 4.44929 12.0727 6.02713 12.0727 8.20029C12.0727 10.3602 13.7634 11.9513 15.8378 11.9513C17.9131 11.9513 19.6038 10.3602 19.6038 8.20029C19.6038 6.02713 17.9131 4.44929 15.8378 4.44929ZM15.8378 10.4749C14.701 10.4749 13.7211 9.53734 13.7211 8.20117C13.7211 6.85088 14.7018 5.92746 15.8378 5.92746C16.9747 5.92746 17.9545 6.85088 17.9545 8.20117C17.9554 9.53646 16.9747 10.4749 15.8378 10.4749ZM6.06741 5.60114V7.1922H9.87573C9.76196 8.08739 9.46385 8.74093 9.00876 9.19514C8.45489 9.74901 7.58792 10.3602 6.06741 10.3602C3.72315 10.3602 1.89043 8.47017 1.89043 6.12591C1.89043 3.78165 3.72315 1.8916 6.06741 1.8916C7.33215 1.8916 8.25557 2.38903 8.93732 3.02845L10.0601 1.90571C9.10754 0.996407 7.84369 0.300538 6.06741 0.300538C2.85618 0.300538 0.156494 2.91468 0.156494 6.12591C0.156494 9.33714 2.85618 11.9513 6.06741 11.9513C7.80047 11.9513 9.10843 11.3824 10.1306 10.317C11.1819 9.2657 11.5091 7.78752 11.5091 6.59423C11.5091 6.22557 11.4809 5.88425 11.4236 5.60026H6.06741V5.60114ZM46.0274 6.83677C45.7152 5.9989 44.7627 4.44929 42.8162 4.44929C40.8838 4.44929 39.2778 5.9698 39.2778 8.20029C39.2778 10.3029 40.8697 11.9513 43.0005 11.9513C44.7195 11.9513 45.7143 10.9 46.1271 10.2888L44.8482 9.43591C44.4222 10.0612 43.8393 10.4731 43.0005 10.4731C42.1627 10.4731 41.5656 10.0894 41.1819 9.33625L46.1976 7.26187L46.0274 6.83677ZM40.912 8.08739C40.8697 6.63744 42.0348 5.89924 42.8735 5.89924C43.5271 5.89924 44.0809 6.22645 44.2661 6.69477L40.912 8.08739ZM36.8347 11.7246H38.4822V0.699185H36.8347V11.7246ZM34.1341 5.28804H34.0777C33.7082 4.84706 32.9973 4.44929 32.103 4.44929C30.227 4.44929 28.5081 6.09768 28.5081 8.21528C28.5081 10.3179 30.227 11.9522 32.103 11.9522C32.9982 11.9522 33.7082 11.5544 34.0777 11.1002H34.1341V11.6399C34.1341 13.0749 33.3668 13.8422 32.1312 13.8422C31.1222 13.8422 30.4969 13.1181 30.2412 12.5069L28.8062 13.104C29.2181 14.098 30.3117 15.3204 32.1312 15.3204C34.0636 15.3204 35.6979 14.1835 35.6979 11.4124V4.67772H34.135V5.28804H34.1341ZM32.245 10.4749C31.1081 10.4749 30.1565 9.52235 30.1565 8.21528C30.1565 6.89321 31.1081 5.92746 32.245 5.92746C33.3668 5.92746 34.2479 6.89321 34.2479 8.21528C34.2479 9.52235 33.3668 10.4749 32.245 10.4749ZM53.7481 0.699185H49.8049V11.7246H51.4497V7.54763H53.7472C55.5711 7.54763 57.3651 6.22733 57.3651 4.12385C57.3651 2.02037 55.572 0.699185 53.7481 0.699185ZM53.7905 6.01301H51.4497V2.2338H53.7905C55.0208 2.2338 55.7193 3.25247 55.7193 4.12385C55.7193 4.97759 55.0208 6.01301 53.7905 6.01301ZM63.9613 4.42989C62.7697 4.42989 61.5359 4.95466 61.0252 6.11797L62.4857 6.7274C62.798 6.11797 63.3801 5.91864 63.9895 5.91864C64.8406 5.91864 65.7058 6.4293 65.7199 7.33684V7.45061C65.4218 7.2804 64.7833 7.02551 64.0036 7.02551C62.4293 7.02551 60.8259 7.89072 60.8259 9.50735C60.8259 10.9829 62.1171 11.9328 63.5635 11.9328C64.6695 11.9328 65.2798 11.4362 65.6626 10.8541H65.719V11.7052H67.3083V7.47796C67.3092 5.52176 65.8469 4.42989 63.9613 4.42989ZM63.7619 10.4722C63.2239 10.4722 62.4716 10.2023 62.4716 9.53558C62.4716 8.68448 63.4083 8.35815 64.217 8.35815C64.9394 8.35815 65.2807 8.51426 65.7199 8.72682C65.592 9.74901 64.7127 10.4722 63.7619 10.4722ZM73.0958 4.67067L71.2092 9.45091H71.1528L69.1948 4.67067H67.4221L70.3582 11.3515L68.6842 15.0681H70.4005L74.9258 4.67067H73.0958ZM58.2735 11.7246H59.9183V0.699185H58.2735V11.7246Z" fill="#101010"/>
</svg>
