<svg width="22" height="24" viewBox="0 0 22 24" fill="none" xmlns="http://www.w3.org/2000/svg">
<g filter="url(#filter0_ii_47_886)">
<path d="M1.20129 1.12141C0.944637 1.39305 0.792938 1.81463 0.792938 2.36056V21.8661C0.792938 22.4129 0.944637 22.8336 1.20129 23.1052L1.26655 23.1687L12.1932 12.2421V12.1133V11.9845L1.26655 1.05702L1.20129 1.12141Z" fill="url(#paint0_linear_47_886)"/>
<path d="M15.834 15.8856L12.1924 12.2422V12.1134V11.9846L15.8349 8.34213L15.9169 8.38888L20.2323 10.8407C21.4644 11.541 21.4644 12.6867 20.2323 13.3878L15.9169 15.8397L15.834 15.8856Z" fill="url(#paint1_linear_47_886)"/>
<g filter="url(#filter1_i_47_886)">
<path d="M15.9176 15.839L12.1922 12.1135L1.20117 23.1055C1.60688 23.5358 2.27805 23.5888 3.03389 23.1601L15.9176 15.839Z" fill="url(#paint2_linear_47_886)"/>
</g>
<path d="M15.9176 8.3881L3.03389 1.0678C2.27805 0.638283 1.60688 0.692083 1.20117 1.12248L12.1931 12.1144L15.9176 8.3881Z" fill="url(#paint3_linear_47_886)"/>
</g>
<defs>
<filter id="filter0_ii_47_886" x="0.792938" y="0.771393" width="20.3635" height="22.6848" filterUnits="userSpaceOnUse" color-interpolation-filters="sRGB">
<feFlood flood-opacity="0" result="BackgroundImageFix"/>
<feBlend mode="normal" in="SourceGraphic" in2="BackgroundImageFix" result="shape"/>
<feColorMatrix in="SourceAlpha" type="matrix" values="0 0 0 0 0 0 0 0 0 0 0 0 0 0 0 0 0 0 127 0" result="hardAlpha"/>
<feOffset dy="-0.132295"/>
<feComposite in2="hardAlpha" operator="arithmetic" k2="-1" k3="1"/>
<feColorMatrix type="matrix" values="0 0 0 0 0 0 0 0 0 0 0 0 0 0 0 0 0 0 0.12 0"/>
<feBlend mode="normal" in2="shape" result="effect1_innerShadow_47_886"/>
<feColorMatrix in="SourceAlpha" type="matrix" values="0 0 0 0 0 0 0 0 0 0 0 0 0 0 0 0 0 0 127 0" result="hardAlpha"/>
<feOffset dy="0.132295"/>
<feComposite in2="hardAlpha" operator="arithmetic" k2="-1" k3="1"/>
<feColorMatrix type="matrix" values="0 0 0 0 1 0 0 0 0 1 0 0 0 0 1 0 0 0 0.25 0"/>
<feBlend mode="normal" in2="effect1_innerShadow_47_886" result="effect2_innerShadow_47_886"/>
</filter>
<filter id="filter1_i_47_886" x="1.20117" y="12.1135" width="14.7164" height="11.3427" filterUnits="userSpaceOnUse" color-interpolation-filters="sRGB">
<feFlood flood-opacity="0" result="BackgroundImageFix"/>
<feBlend mode="normal" in="SourceGraphic" in2="BackgroundImageFix" result="shape"/>
<feColorMatrix in="SourceAlpha" type="matrix" values="0 0 0 0 0 0 0 0 0 0 0 0 0 0 0 0 0 0 127 0" result="hardAlpha"/>
<feOffset dy="-0.132295"/>
<feComposite in2="hardAlpha" operator="arithmetic" k2="-1" k3="1"/>
<feColorMatrix type="matrix" values="0 0 0 0 0 0 0 0 0 0 0 0 0 0 0 0 0 0 0.08 0"/>
<feBlend mode="normal" in2="shape" result="effect1_innerShadow_47_886"/>
</filter>
<linearGradient id="paint0_linear_47_886" x1="11.2246" y1="2.15418" x2="-3.57648" y2="16.9553" gradientUnits="userSpaceOnUse">
<stop stop-color="#00A0FF"/>
<stop offset="0.0066" stop-color="#00A1FF"/>
<stop offset="0.2601" stop-color="#00BEFF"/>
<stop offset="0.5122" stop-color="#00D2FF"/>
<stop offset="0.7604" stop-color="#00DFFF"/>
<stop offset="1" stop-color="#00E3FF"/>
</linearGradient>
<linearGradient id="paint1_linear_47_886" x1="21.8362" y1="12.1134" x2="0.496283" y2="12.1134" gradientUnits="userSpaceOnUse">
<stop stop-color="#FFE000"/>
<stop offset="0.4087" stop-color="#FFBD00"/>
<stop offset="0.7754" stop-color="#FFA500"/>
<stop offset="1" stop-color="#FF9C00"/>
</linearGradient>
<linearGradient id="paint2_linear_47_886" x1="13.8945" y1="14.1367" x2="-6.17768" y2="34.2088" gradientUnits="userSpaceOnUse">
<stop stop-color="#FF3A44"/>
<stop offset="1" stop-color="#C31162"/>
</linearGradient>
<linearGradient id="paint3_linear_47_886" x1="-1.56696" y1="-5.37071" x2="7.39582" y2="3.59207" gradientUnits="userSpaceOnUse">
<stop stop-color="#32A071"/>
<stop offset="0.0685" stop-color="#2DA771"/>
<stop offset="0.4762" stop-color="#15CF74"/>
<stop offset="0.8009" stop-color="#06E775"/>
<stop offset="1" stop-color="#00F076"/>
</linearGradient>
</defs>
</svg>
