<svg width="75" height="16" viewBox="0 0 75 16" fill="none" xmlns="http://www.w3.org/2000/svg">
<path d="M24.0524 4.44929C21.978 4.44929 20.2872 6.02713 20.2872 8.20029C20.2872 10.3602 21.978 11.9513 24.0524 11.9513C26.1276 11.9513 27.8183 10.3602 27.8183 8.20029C27.8175 6.02713 26.1267 4.44929 24.0524 4.44929ZM24.0524 10.4749C22.9155 10.4749 21.9356 9.53734 21.9356 8.20117C21.9356 6.85088 22.9164 5.92746 24.0524 5.92746C25.1892 5.92746 26.1691 6.85088 26.1691 8.20117C26.1691 9.53646 25.1892 10.4749 24.0524 10.4749ZM15.8377 4.44929C13.7634 4.44929 12.0726 6.02713 12.0726 8.20029C12.0726 10.3602 13.7634 11.9513 15.8377 11.9513C17.913 11.9513 19.6037 10.3602 19.6037 8.20029C19.6037 6.02713 17.913 4.44929 15.8377 4.44929ZM15.8377 10.4749C14.7009 10.4749 13.721 9.53734 13.721 8.20117C13.721 6.85088 14.7018 5.92746 15.8377 5.92746C16.9746 5.92746 17.9545 6.85088 17.9545 8.20117C17.9553 9.53646 16.9746 10.4749 15.8377 10.4749ZM6.06735 5.60114V7.1922H9.87567C9.7619 8.08739 9.46379 8.74093 9.0087 9.19514C8.45483 9.74901 7.58786 10.3602 6.06735 10.3602C3.72309 10.3602 1.89037 8.47017 1.89037 6.12591C1.89037 3.78165 3.72309 1.8916 6.06735 1.8916C7.33209 1.8916 8.25551 2.38903 8.93726 3.02845L10.06 1.90571C9.10748 0.996407 7.84363 0.300538 6.06735 0.300538C2.85612 0.300538 0.156433 2.91468 0.156433 6.12591C0.156433 9.33714 2.85612 11.9513 6.06735 11.9513C7.80041 11.9513 9.10837 11.3824 10.1306 10.317C11.1819 9.2657 11.5091 7.78752 11.5091 6.59423C11.5091 6.22557 11.4808 5.88425 11.4235 5.60026H6.06735V5.60114ZM46.0274 6.83677C45.7151 5.9989 44.7626 4.44929 42.8161 4.44929C40.8837 4.44929 39.2777 5.9698 39.2777 8.20029C39.2777 10.3029 40.8696 11.9513 43.0005 11.9513C44.7194 11.9513 45.7143 10.9 46.127 10.2888L44.8482 9.43591C44.4222 10.0612 43.8392 10.4731 43.0005 10.4731C42.1626 10.4731 41.5655 10.0894 41.1819 9.33625L46.1976 7.26187L46.0274 6.83677ZM40.912 8.08739C40.8696 6.63744 42.0347 5.89924 42.8735 5.89924C43.527 5.89924 44.0809 6.22645 44.2661 6.69477L40.912 8.08739ZM36.8346 11.7246H38.4822V0.699185H36.8346V11.7246ZM34.1341 5.28804H34.0776C33.7081 4.84706 32.9972 4.44929 32.1029 4.44929C30.227 4.44929 28.508 6.09768 28.508 8.21528C28.508 10.3179 30.227 11.9522 32.1029 11.9522C32.9981 11.9522 33.7081 11.5544 34.0776 11.1002H34.1341V11.6399C34.1341 13.0749 33.3668 13.8422 32.1311 13.8422C31.1222 13.8422 30.4969 13.1181 30.2411 12.5069L28.8061 13.104C29.218 14.098 30.3116 15.3204 32.1311 15.3204C34.0635 15.3204 35.6978 14.1835 35.6978 11.4124V4.67772H34.135V5.28804H34.1341ZM32.2449 10.4749C31.1081 10.4749 30.1564 9.52235 30.1564 8.21528C30.1564 6.89321 31.1081 5.92746 32.2449 5.92746C33.3668 5.92746 34.2479 6.89321 34.2479 8.21528C34.2479 9.52235 33.3668 10.4749 32.2449 10.4749ZM53.7481 0.699185H49.8048V11.7246H51.4497V7.54763H53.7472C55.5711 7.54763 57.365 6.22733 57.365 4.12385C57.365 2.02037 55.572 0.699185 53.7481 0.699185ZM53.7904 6.01301H51.4497V2.2338H53.7904C55.0207 2.2338 55.7193 3.25247 55.7193 4.12385C55.7193 4.97759 55.0207 6.01301 53.7904 6.01301ZM63.9612 4.42989C62.7697 4.42989 61.5358 4.95466 61.0251 6.11797L62.4857 6.7274C62.7979 6.11797 63.38 5.91864 63.9894 5.91864C64.8405 5.91864 65.7057 6.4293 65.7198 7.33684V7.45061C65.4217 7.2804 64.7832 7.02551 64.0035 7.02551C62.4292 7.02551 60.8258 7.89072 60.8258 9.50735C60.8258 10.9829 62.117 11.9328 63.5634 11.9328C64.6694 11.9328 65.2797 11.4362 65.6625 10.8541H65.719V11.7052H67.3083V7.47796C67.3091 5.52176 65.8468 4.42989 63.9612 4.42989ZM63.7619 10.4722C63.2239 10.4722 62.4716 10.2023 62.4716 9.53558C62.4716 8.68448 63.4082 8.35815 64.217 8.35815C64.9393 8.35815 65.2806 8.51427 65.7198 8.72682C65.5919 9.74901 64.7126 10.4722 63.7619 10.4722ZM73.0957 4.67067L71.2092 9.45091H71.1527L69.1948 4.67067H67.422L70.3581 11.3515L68.6841 15.0681H70.4004L74.9258 4.67067H73.0957ZM58.2734 11.7246H59.9183V0.699185H58.2734V11.7246Z" fill="#101010"/>
</svg>
