<svg width="22" height="24" viewBox="0 0 22 24" fill="none" xmlns="http://www.w3.org/2000/svg">
<g filter="url(#filter0_ii_34_1073)">
<path d="M1.20129 1.12151C0.944637 1.39316 0.792938 1.81474 0.792938 2.36067V21.8662C0.792938 22.413 0.944637 22.8337 1.20129 23.1053L1.26655 23.1688L12.1932 12.2422V12.1134V11.9847L1.26655 1.05713L1.20129 1.12151Z" fill="url(#paint0_linear_34_1073)"/>
<path d="M15.834 15.8856L12.1924 12.2422V12.1134V11.9847L15.8349 8.34216L15.9169 8.38891L20.2323 10.8408C21.4644 11.541 21.4644 12.6867 20.2323 13.3879L15.9169 15.8397L15.834 15.8856Z" fill="url(#paint1_linear_34_1073)"/>
<g filter="url(#filter1_i_34_1073)">
<path d="M15.9176 15.8391L12.1922 12.1136L1.20119 23.1056C1.60689 23.536 2.27806 23.5889 3.03391 23.1602L15.9176 15.8391Z" fill="url(#paint2_linear_34_1073)"/>
</g>
<path d="M15.9176 8.38819L3.03391 1.06789C2.27806 0.638374 1.60689 0.692174 1.20119 1.12257L12.1931 12.1145L15.9176 8.38819Z" fill="url(#paint3_linear_34_1073)"/>
</g>
<defs>
<filter id="filter0_ii_34_1073" x="0.792938" y="0.771484" width="20.3635" height="22.6848" filterUnits="userSpaceOnUse" color-interpolation-filters="sRGB">
<feFlood flood-opacity="0" result="BackgroundImageFix"/>
<feBlend mode="normal" in="SourceGraphic" in2="BackgroundImageFix" result="shape"/>
<feColorMatrix in="SourceAlpha" type="matrix" values="0 0 0 0 0 0 0 0 0 0 0 0 0 0 0 0 0 0 127 0" result="hardAlpha"/>
<feOffset dy="-0.132295"/>
<feComposite in2="hardAlpha" operator="arithmetic" k2="-1" k3="1"/>
<feColorMatrix type="matrix" values="0 0 0 0 0 0 0 0 0 0 0 0 0 0 0 0 0 0 0.12 0"/>
<feBlend mode="normal" in2="shape" result="effect1_innerShadow_34_1073"/>
<feColorMatrix in="SourceAlpha" type="matrix" values="0 0 0 0 0 0 0 0 0 0 0 0 0 0 0 0 0 0 127 0" result="hardAlpha"/>
<feOffset dy="0.132295"/>
<feComposite in2="hardAlpha" operator="arithmetic" k2="-1" k3="1"/>
<feColorMatrix type="matrix" values="0 0 0 0 1 0 0 0 0 1 0 0 0 0 1 0 0 0 0.25 0"/>
<feBlend mode="normal" in2="effect1_innerShadow_34_1073" result="effect2_innerShadow_34_1073"/>
</filter>
<filter id="filter1_i_34_1073" x="1.20119" y="12.1136" width="14.7164" height="11.3427" filterUnits="userSpaceOnUse" color-interpolation-filters="sRGB">
<feFlood flood-opacity="0" result="BackgroundImageFix"/>
<feBlend mode="normal" in="SourceGraphic" in2="BackgroundImageFix" result="shape"/>
<feColorMatrix in="SourceAlpha" type="matrix" values="0 0 0 0 0 0 0 0 0 0 0 0 0 0 0 0 0 0 127 0" result="hardAlpha"/>
<feOffset dy="-0.132295"/>
<feComposite in2="hardAlpha" operator="arithmetic" k2="-1" k3="1"/>
<feColorMatrix type="matrix" values="0 0 0 0 0 0 0 0 0 0 0 0 0 0 0 0 0 0 0.08 0"/>
<feBlend mode="normal" in2="shape" result="effect1_innerShadow_34_1073"/>
</filter>
<linearGradient id="paint0_linear_34_1073" x1="11.2246" y1="2.15429" x2="-3.57648" y2="16.9554" gradientUnits="userSpaceOnUse">
<stop stop-color="#00A0FF"/>
<stop offset="0.0066" stop-color="#00A1FF"/>
<stop offset="0.2601" stop-color="#00BEFF"/>
<stop offset="0.5122" stop-color="#00D2FF"/>
<stop offset="0.7604" stop-color="#00DFFF"/>
<stop offset="1" stop-color="#00E3FF"/>
</linearGradient>
<linearGradient id="paint1_linear_34_1073" x1="21.8362" y1="12.1134" x2="0.496283" y2="12.1134" gradientUnits="userSpaceOnUse">
<stop stop-color="#FFE000"/>
<stop offset="0.4087" stop-color="#FFBD00"/>
<stop offset="0.7754" stop-color="#FFA500"/>
<stop offset="1" stop-color="#FF9C00"/>
</linearGradient>
<linearGradient id="paint2_linear_34_1073" x1="13.8945" y1="14.1368" x2="-6.17767" y2="34.209" gradientUnits="userSpaceOnUse">
<stop stop-color="#FF3A44"/>
<stop offset="1" stop-color="#C31162"/>
</linearGradient>
<linearGradient id="paint3_linear_34_1073" x1="-1.56694" y1="-5.37062" x2="7.39583" y2="3.59216" gradientUnits="userSpaceOnUse">
<stop stop-color="#32A071"/>
<stop offset="0.0685" stop-color="#2DA771"/>
<stop offset="0.4762" stop-color="#15CF74"/>
<stop offset="0.8009" stop-color="#06E775"/>
<stop offset="1" stop-color="#00F076"/>
</linearGradient>
</defs>
</svg>
