<svg width="133" height="48" viewBox="0 0 133 48" fill="none" xmlns="http://www.w3.org/2000/svg">
<path d="M14.2111 29.3953C14.2111 28.6076 14.272 27.7587 14.4535 26.9099C15.6941 20.6969 20.7499 16.5137 26.8351 16.5137C32.1929 16.5137 35.8565 20.0595 35.9175 25.3328H30.4987C30.2875 22.9679 28.6215 21.6961 26.3814 21.6961C23.2637 21.6961 20.6592 24.0297 19.9943 27.4847C19.9036 27.9702 19.8426 28.4542 19.8426 28.8786C19.8426 31.4847 21.4475 33.3343 23.9598 33.3343C26.4722 33.3343 28.4103 32.0923 29.7118 29.4847H35.4028C33.7071 35.1526 29.0157 38.5168 23.3842 38.5168C17.7527 38.5168 14.2111 34.7282 14.2111 29.3939V29.3953Z" fill="#404041"/>
<path d="M50.7196 16.9087L54.1705 37.4881L54.05 38.124H48.5405L48.1775 34.7301H41.548L39.7927 38.124H33.7686L33.9203 37.4881L45.576 16.9087H50.7226H50.7196ZM46.9965 24.0614L43.6973 30.4263H47.8444L46.9965 24.0614Z" fill="#404041"/>
<path d="M70.6381 16.9087H76.7531L76.6326 17.5446L64.8564 38.124H60.2244L56.6218 17.5446L56.7423 16.9087H62.1909L62.8572 21.4553L63.8866 29.7904L68.1853 21.4553L70.6381 16.9087Z" fill="#404041"/>
<path d="M88.6195 16.9087L92.0704 37.4881L91.9499 38.124H86.4404L86.0774 34.7301H79.4479L77.6927 38.124H71.6685L71.8202 37.4881L83.4759 16.9087H88.6225H88.6195ZM84.8964 24.0614L81.5972 30.4263H85.7443L84.8964 24.0614Z" fill="#404041"/>
<path d="M110.779 29.4266C110.779 28.6388 110.87 27.79 111.051 26.9113C112.292 20.6983 117.438 16.5151 123.827 16.5151C129.366 16.5151 133 20.3037 133 25.638C133 26.4258 132.939 27.2747 132.758 28.1235C131.517 34.3365 126.371 38.5197 119.952 38.5197C114.443 38.5197 110.779 34.7312 110.779 29.4266ZM127.217 27.4862C127.308 27.0007 127.369 26.5465 127.369 26.0923C127.369 23.4861 125.734 21.6976 123.131 21.6976C119.982 21.6976 117.258 24.1533 116.592 27.5472C116.501 28.0327 116.44 28.5167 116.44 28.9724C116.44 31.5785 118.105 33.3373 120.678 33.3373C123.827 33.3373 126.521 30.8816 127.217 27.4876V27.4862Z" fill="#404041"/>
<path d="M108.834 33.0934H100.727L103.967 16.9087H98.4277L94.1885 38.1255H107.019L108.834 33.0934Z" fill="#404041"/>
<path d="M36.213 13.4445L36.9969 10.688C36.9969 10.688 12.265 17.4371 5.36617 30.4022C5.36617 30.4022 0.460543 39.4819 16.9118 38.015C16.9118 38.015 6.24526 38.7239 7.39655 32.5958C7.39655 32.5958 8.94499 22.7431 36.213 13.4445V13.4445Z" fill="#F4BA00"/>
<path d="M32.5415 18.6275L33.1365 16.5337C33.1365 16.5337 14.3574 21.6581 9.12006 31.5017C9.12006 31.5017 5.39547 38.3953 17.8856 37.2814C17.8856 37.2814 9.78793 37.819 10.6611 33.1667C10.6611 33.1667 11.8362 25.6849 32.5401 18.626L32.5415 18.6275Z" fill="#F4BA00"/>
<path d="M39.8968 5.72494L40.2508 4.48145C40.2508 4.48145 9.44407 12.888 0.852524 29.0355C0.852524 29.0355 -5.25646 40.3446 15.2318 38.5174C15.2318 38.5174 1.94729 39.4005 3.37971 31.7683C3.37971 31.7683 5.30894 19.4957 39.272 7.91408L39.8953 5.72345" fill="#F4BA00"/>
<path d="M43.1025 8.97445V8.9804C43.1769 8.99679 43.2289 8.94317 43.2884 8.91488C44.0188 8.553 44.7476 8.18814 45.478 7.82478C45.5523 7.88137 45.5672 7.96774 45.5895 8.04816C45.9763 9.40632 46.3615 10.7645 46.7483 12.1226C46.833 12.419 46.9238 12.7124 47.0219 13.0385C48.325 11.7086 49.5923 10.416 50.8581 9.12188C52.9019 7.03103 54.9471 4.94018 56.9849 2.84337C57.4639 2.35044 57.9726 1.8858 58.4069 1.35118C58.4129 1.35118 58.4203 1.35118 58.4263 1.35118C58.4292 1.35118 58.4307 1.34373 58.4337 1.33926L58.4069 1.35416C58.3385 1.31246 58.2627 1.31097 58.1853 1.3065C56.7782 1.21566 55.3725 1.12184 53.9654 1.02951C51.517 0.867184 49.0687 0.704861 46.6203 0.542537C44.468 0.399572 42.3171 0.255119 40.1648 0.113644C39.5609 0.0734352 38.9584 0.0391834 38.3516 0.00195312C38.3545 0.0808813 38.3962 0.100241 38.4274 0.127047C38.9733 0.600616 39.5177 1.07567 40.0636 1.54775C40.8996 2.27002 41.7355 2.9908 42.573 3.71307C42.6637 4.77785 42.7485 5.84264 42.8452 6.90593C42.9076 7.58799 42.9374 8.27452 43.043 8.9536L43.0683 9.0087L43.0995 8.97743L43.1025 8.97445Z" fill="#FEFEFE"/>
<path d="M42.5738 3.71111C41.7379 2.98885 40.9004 2.26807 40.0645 1.5458C39.5186 1.07372 38.9742 0.598663 38.4283 0.125094C38.397 0.0982879 38.3554 0.0789282 38.3524 0C38.9578 0.0372303 39.5617 0.0714821 40.1656 0.111691C42.318 0.253166 44.4688 0.397619 46.6212 0.540583C49.0695 0.702907 51.5179 0.865231 53.9662 1.02756C55.3734 1.12138 56.779 1.21371 58.1862 1.30455C58.2635 1.30902 58.3394 1.31051 58.4078 1.3522C57.9735 1.88683 57.4647 2.35146 56.9858 2.84439C54.948 4.9412 52.9027 7.03056 50.8589 9.1229C49.5931 10.417 48.3258 11.7097 47.0228 13.0395C46.9246 12.7134 46.8339 12.42 46.7491 12.1237C46.3624 10.7655 45.9771 9.40734 45.5904 8.04918C45.5681 7.96877 45.5517 7.8809 45.4788 7.8258C45.5145 7.76028 45.4996 7.69773 45.4803 7.62923C45.2974 6.99482 45.1159 6.36042 44.9344 5.72453C44.9627 5.64113 45.0356 5.61581 45.1099 5.59199C45.4178 5.49519 45.7242 5.39839 46.0307 5.3001C47.6222 4.79228 49.2138 4.28595 50.8054 3.77664C52.8164 3.13479 54.829 2.49443 56.8385 1.84513C57.1732 1.73642 57.5272 1.67834 57.8292 1.47879C57.8753 1.48325 57.9259 1.51453 57.966 1.46389C57.972 1.45645 57.966 1.42964 57.9571 1.42517C57.905 1.39986 57.8634 1.42815 57.8217 1.45496C56.8311 1.54133 55.8553 1.73195 54.8721 1.87343C52.7376 2.18318 50.6061 2.51528 48.4731 2.83844C47.3396 3.01118 46.2062 3.18691 45.0727 3.35519C44.2427 3.4788 43.4098 3.59198 42.5783 3.70962L42.5738 3.71111Z" fill="#F6C833"/>
<path d="M42.5741 3.7117C43.4056 3.59405 44.2371 3.48087 45.0686 3.35726C46.2035 3.18898 47.3354 3.01177 48.4689 2.84051C50.6019 2.51735 52.7334 2.18526 54.8679 1.8755C55.8511 1.73254 56.8269 1.54341 57.8175 1.45703C57.8205 1.46448 57.8235 1.47341 57.8265 1.48086C57.5245 1.67892 57.169 1.73849 56.8358 1.8472C54.8263 2.4965 52.8152 3.13686 50.8027 3.77871C49.2111 4.28653 47.6195 4.79435 46.028 5.30217C45.7216 5.40046 45.4137 5.49726 45.1072 5.59406C45.0329 5.61789 44.9615 5.6432 44.9317 5.7266C44.8246 5.73255 44.8068 5.82191 44.7666 5.89488C44.4126 6.53524 44.0452 7.16964 43.7016 7.81596C43.4963 8.20167 43.2345 8.55908 43.1007 8.98201V8.97606C43.0828 8.96861 43.0635 8.96116 43.0441 8.95223C42.94 8.27315 42.9088 7.58811 42.8463 6.90456C42.7496 5.84127 42.6633 4.77648 42.5741 3.7117V3.7117Z" fill="#F4BA00"/>
<path d="M43.101 8.98002C43.2348 8.55709 43.4966 8.19968 43.7019 7.81397C44.0455 7.16765 44.4114 6.53325 44.7669 5.89289C44.8071 5.81843 44.8264 5.73057 44.932 5.72461C45.1135 6.35901 45.2949 6.99491 45.4779 7.62931C45.4972 7.69632 45.5121 7.76036 45.4764 7.82589C44.7461 8.18925 44.0172 8.55411 43.2869 8.91599C43.2289 8.94577 43.1768 8.99789 43.101 8.98151V8.98002Z" fill="#B78B00"/>
<path d="M58.4072 1.35114L58.4346 1.33594C58.4346 1.33594 58.4315 1.34658 58.427 1.3481C58.4209 1.34962 58.4133 1.3481 58.4072 1.3481V1.35114Z" fill="#82D5F3"/>
<path d="M43.0444 8.9502C43.0638 8.95764 43.0831 8.96509 43.101 8.97402C43.0906 8.98445 43.0802 8.99487 43.0697 9.0053L43.0444 8.9502Z" fill="#0272BC"/>
<path d="M57.8198 1.4551C57.8615 1.42681 57.9032 1.39851 57.9553 1.42532C57.9628 1.42979 57.9702 1.45659 57.9643 1.46404C57.9256 1.51467 57.8749 1.48489 57.8273 1.47893C57.8243 1.47148 57.8213 1.46255 57.8184 1.4551H57.8198Z" fill="#2AABE1"/>
<path d="M17.0497 41.4761H20.1808L20.0692 42.3905H18.9997L18.4241 46.6109H17.4676L18.0433 42.3905H16.9307L17.0497 41.4761Z" fill="#404041"/>
<path d="M20.857 41.3477H21.7822L21.5308 43.1987C21.8878 42.8771 22.2582 42.7162 22.6419 42.7162C22.9706 42.7162 23.2399 42.8205 23.4496 43.029C23.6593 43.2375 23.7635 43.4996 23.7635 43.8168C23.7635 43.9657 23.7441 44.1876 23.704 44.4839L23.4139 46.612H22.4857L22.7698 44.5346C22.7981 44.3201 22.8115 44.1593 22.8115 44.0535C22.8115 43.9002 22.7683 43.7825 22.6806 43.6991C22.5928 43.6157 22.4694 43.5755 22.3087 43.5755C22.1481 43.5755 21.9964 43.6291 21.8417 43.7378C21.6855 43.8465 21.5665 43.997 21.4817 44.1876C21.3984 44.3797 21.3211 44.7401 21.2511 45.2687L21.0682 46.612H20.14L20.8585 41.3491L20.857 41.3477Z" fill="#404041"/>
<path d="M27.4725 45.5001L28.292 45.926C28.1091 46.1673 27.8651 46.3579 27.5617 46.4994C27.2583 46.6394 26.9221 46.7108 26.5517 46.7108C25.9731 46.7108 25.5164 46.5485 25.1833 46.2224C24.8501 45.8962 24.6835 45.4644 24.6835 44.9238C24.6835 44.3073 24.8917 43.786 25.3097 43.3586C25.7277 42.9312 26.2304 42.7183 26.8209 42.7183C27.1764 42.7183 27.4933 42.7957 27.7714 42.9521C28.0496 43.1084 28.2682 43.3348 28.4289 43.6326C28.5895 43.9305 28.6699 44.2536 28.6699 44.6036C28.6699 44.7123 28.658 44.8404 28.6356 44.9878H25.6102C25.6191 45.2514 25.7054 45.4629 25.8705 45.6192C26.0356 45.7756 26.2602 45.8545 26.5487 45.8545C26.8968 45.8545 27.2062 45.7384 27.4754 45.5046L27.4725 45.5001ZM27.709 44.3013C27.639 44.069 27.523 43.8918 27.3609 43.7726C27.1988 43.6535 27.0024 43.5924 26.7719 43.5924C26.5413 43.5924 26.339 43.6535 26.1546 43.7771C25.9701 43.9007 25.8318 44.0749 25.7366 44.3013H27.7104H27.709Z" fill="#404041"/>
<path d="M31.6339 42.8135H32.5308L33.0544 44.8477L34.1581 42.8135H34.5255L35.0565 44.8477L36.1588 42.8135H37.1464L35.0833 46.611H34.6356L34.1195 44.6035L33.0381 46.611H32.5993L31.6354 42.8135H31.6339Z" fill="#404041"/>
<path d="M38.2486 41.3477H39.1738L38.9224 43.1987C39.2794 42.8771 39.6498 42.7162 40.0335 42.7162C40.3622 42.7162 40.6315 42.8205 40.8412 43.029C41.0509 43.2375 41.1551 43.4996 41.1551 43.8168C41.1551 43.9657 41.1357 44.1876 41.0956 44.4839L40.8055 46.612H39.8773L40.1614 44.5346C40.1897 44.3201 40.2031 44.1593 40.2031 44.0535C40.2031 43.9002 40.1599 43.7825 40.0722 43.6991C39.9844 43.6157 39.861 43.5755 39.7003 43.5755C39.5397 43.5755 39.388 43.6291 39.2333 43.7378C39.0771 43.8465 38.9581 43.997 38.8733 44.1876C38.79 44.3797 38.7127 44.7401 38.6427 45.2687L38.4598 46.612H37.5316L38.2501 41.3491L38.2486 41.3477Z" fill="#404041"/>
<path d="M44.8636 45.5001L45.6832 45.926C45.5002 46.1673 45.2563 46.3579 44.9528 46.4994C44.6494 46.6394 44.3132 46.7108 43.9428 46.7108C43.3642 46.7108 42.9076 46.5485 42.5744 46.2224C42.2412 45.8962 42.0746 45.4644 42.0746 44.9238C42.0746 44.3073 42.2828 43.786 42.7008 43.3586C43.1188 42.9312 43.6215 42.7183 44.2121 42.7183C44.5676 42.7183 44.8844 42.7957 45.1625 42.9521C45.4407 43.1084 45.6594 43.3348 45.82 43.6326C45.9806 43.9305 46.061 44.2536 46.061 44.6036C46.061 44.7123 46.0491 44.8404 46.0268 44.9878H43.0013C43.0102 45.2514 43.0965 45.4629 43.2616 45.6192C43.4267 45.7756 43.6513 45.8545 43.9399 45.8545C44.2879 45.8545 44.5973 45.7384 44.8665 45.5046L44.8636 45.5001ZM45.1001 44.3013C45.0302 44.069 44.9141 43.8918 44.752 43.7726C44.5899 43.6535 44.3935 43.5924 44.163 43.5924C43.9324 43.5924 43.7301 43.6535 43.5457 43.7771C43.3612 43.9007 43.2229 44.0749 43.1277 44.3013H45.1016H45.1001Z" fill="#404041"/>
<path d="M49.6413 45.5001L50.4609 45.926C50.2779 46.1673 50.034 46.3579 49.7305 46.4994C49.4271 46.6394 49.0909 46.7108 48.7205 46.7108C48.1419 46.7108 47.6853 46.5485 47.3521 46.2224C47.0189 45.8962 46.8523 45.4644 46.8523 44.9238C46.8523 44.3073 47.0605 43.786 47.4785 43.3586C47.8965 42.9312 48.3992 42.7183 48.9898 42.7183C49.3453 42.7183 49.6621 42.7957 49.9403 42.9521C50.2184 43.1084 50.4371 43.3348 50.5977 43.6326C50.7584 43.9305 50.8387 44.2536 50.8387 44.6036C50.8387 44.7123 50.8268 44.8404 50.8045 44.9878H47.779C47.7879 45.2514 47.8742 45.4629 48.0393 45.6192C48.2044 45.7756 48.429 45.8545 48.7176 45.8545C49.0656 45.8545 49.375 45.7384 49.6442 45.5046L49.6413 45.5001ZM49.8778 44.3013C49.8079 44.069 49.6918 43.8918 49.5297 43.7726C49.3676 43.6535 49.1712 43.5924 48.9407 43.5924C48.7101 43.5924 48.5078 43.6535 48.3234 43.7771C48.1389 43.9007 48.0006 44.0749 47.9054 44.3013H49.8793H49.8778Z" fill="#404041"/>
<path d="M52.185 41.3477H53.1146L52.3962 46.6105H51.468L52.1865 41.3477H52.185Z" fill="#404041"/>
<path d="M56.0892 43.3433L55.646 44.0552C55.5314 43.8854 55.4124 43.7603 55.286 43.6799C55.1596 43.5995 55.0421 43.5593 54.9335 43.5593C54.8502 43.5593 54.7788 43.5831 54.7208 43.6292C54.6628 43.6754 54.633 43.7275 54.633 43.7856C54.633 43.8437 54.6568 43.8973 54.7029 43.9524C54.7475 44.009 54.8814 44.1162 55.1045 44.2771C55.4615 44.5332 55.6965 44.7521 55.8096 44.9353C55.9226 45.1185 55.9791 45.3165 55.9791 45.531C55.9791 45.8124 55.8631 46.079 55.6326 46.3307C55.402 46.5823 55.0659 46.7074 54.6271 46.7074C54.3742 46.7074 54.1436 46.6568 53.9354 46.5541C53.7271 46.4513 53.4951 46.2637 53.2393 45.9926L53.8149 45.3225C54.0752 45.6665 54.3593 45.8392 54.6687 45.8392C54.7922 45.8392 54.8903 45.8094 54.9632 45.7499C55.0361 45.6903 55.0733 45.6203 55.0733 45.5384C55.0733 45.4729 55.045 45.4059 54.99 45.3374C54.935 45.2689 54.7817 45.1453 54.5333 44.9695C54.2448 44.764 54.0469 44.5898 53.9369 44.4424C53.7837 44.2368 53.7063 44.0209 53.7063 43.7931C53.7063 43.4744 53.8268 43.2152 54.0678 43.0142C54.3087 42.8132 54.5928 42.7134 54.9201 42.7134C55.1506 42.7134 55.3693 42.7685 55.5761 42.8772C55.7828 42.9859 55.9554 43.1408 56.0922 43.3418L56.0892 43.3433Z" fill="#404041"/>
<path d="M61.2725 42.7148C61.6101 42.7148 61.9151 42.7923 62.1917 42.9487C62.4684 43.105 62.6811 43.3254 62.8343 43.6113C62.9875 43.8973 63.0649 44.2189 63.0649 44.5749C63.0649 45.1661 62.8551 45.6694 62.4342 46.0849C62.0132 46.5004 61.4926 46.7074 60.8724 46.7074C60.3339 46.7074 59.9025 46.5436 59.5827 46.2175C59.2629 45.8913 59.1023 45.4624 59.1023 44.9353C59.1023 44.2979 59.3195 43.7677 59.7538 43.3478C60.1881 42.9278 60.6954 42.7163 61.274 42.7163L61.2725 42.7148ZM61.207 43.5979C60.8263 43.5979 60.5347 43.735 60.3324 44.0075C60.1286 44.2815 60.0275 44.5764 60.0275 44.8951C60.0275 45.1795 60.1108 45.4073 60.2759 45.5816C60.441 45.7558 60.6626 45.8422 60.9393 45.8422C61.332 45.8422 61.6295 45.7096 61.8348 45.4461C62.04 45.1825 62.1427 44.8802 62.1427 44.5406C62.1427 44.2606 62.0564 44.0343 61.8824 43.86C61.7083 43.6858 61.4837 43.5979 61.207 43.5979V43.5979Z" fill="#404041"/>
<path d="M63.8613 42.8136H64.2659C64.3313 42.3177 64.4042 41.9782 64.4831 41.7965C64.5619 41.6148 64.672 41.4778 64.8088 41.387C64.9457 41.2961 65.1152 41.2515 65.3175 41.2515C65.5808 41.2515 65.8232 41.3274 66.0464 41.4778L65.9422 42.2388C65.8143 42.1241 65.6849 42.0675 65.5555 42.0675C65.4573 42.0675 65.3859 42.1033 65.3413 42.1733C65.2967 42.2433 65.2476 42.4577 65.197 42.8136H65.7757L65.6745 43.6163H65.0989L64.6794 46.6111H63.7512L64.1603 43.6163H63.7616L63.8628 42.8136H63.8613Z" fill="#404041"/>
<path d="M68.9536 41.3477H69.8788L69.6275 43.1987C69.9845 42.8771 70.3548 42.7162 70.7386 42.7162C71.0673 42.7162 71.3366 42.8205 71.5463 43.029C71.756 43.2375 71.8601 43.4996 71.8601 43.8168C71.8601 43.9657 71.8408 44.1876 71.8006 44.4839L71.5106 46.612H70.5824L70.8665 44.5346C70.8948 44.3201 70.9082 44.1593 70.9082 44.0535C70.9082 43.9002 70.865 43.7825 70.7773 43.6991C70.6895 43.6157 70.566 43.5755 70.4054 43.5755C70.2448 43.5755 70.093 43.6291 69.9383 43.7378C69.7822 43.8465 69.6632 43.997 69.5784 44.1876C69.4951 44.3797 69.4177 44.7401 69.3478 45.2687L69.1649 46.612H68.2367L68.9551 41.3491L68.9536 41.3477Z" fill="#404041"/>
<path d="M76.0314 42.8131H76.9641L76.436 46.6106H75.5138L75.5688 46.2026C75.3666 46.3902 75.1776 46.5227 75.0021 46.5972C74.8266 46.6717 74.6288 46.7089 74.4101 46.7089C73.9074 46.7089 73.5072 46.5242 73.2112 46.1534C72.9137 45.7841 72.7665 45.3522 72.7665 44.8623C72.7665 44.487 72.8617 44.1311 73.0506 43.793C73.2395 43.455 73.4953 43.1899 73.8151 43.0007C74.1349 42.8116 74.4696 42.7163 74.8192 42.7163C75.0542 42.7163 75.2699 42.7699 75.4677 42.8786C75.6655 42.9859 75.8291 43.1437 75.9586 43.3492L76.0314 42.8146V42.8131ZM74.6332 45.8779C74.8623 45.8779 75.0631 45.8273 75.2327 45.7245C75.4022 45.6218 75.5465 45.4624 75.6626 45.2435C75.7786 45.0246 75.8366 44.8027 75.8366 44.5748C75.8366 44.274 75.7488 44.0328 75.5748 43.8496C75.4008 43.6664 75.1702 43.5756 74.8861 43.5756C74.5544 43.5756 74.2718 43.6977 74.0412 43.9419C73.8092 44.1862 73.6947 44.5019 73.6947 44.8876C73.6947 45.1854 73.7824 45.4252 73.9579 45.6069C74.1334 45.7886 74.3595 45.8794 74.6347 45.8794L74.6332 45.8779Z" fill="#404041"/>
<path d="M78.388 48H77.4584L78.1664 42.8131H79.0812L79.0262 43.2256C79.227 43.0335 79.4129 42.901 79.5869 42.8265C79.761 42.752 79.9558 42.7163 80.173 42.7163C80.6728 42.7163 81.0684 42.901 81.3615 43.2718C81.6545 43.6411 81.8003 44.0715 81.8003 44.56C81.8003 44.9352 81.7066 45.2912 81.5176 45.6322C81.3302 45.9717 81.0774 46.2368 80.7605 46.4259C80.4437 46.6151 80.1135 46.7104 79.7699 46.7104C79.5378 46.7104 79.3236 46.6568 79.1258 46.5495C78.928 46.4423 78.7673 46.2874 78.6424 46.0819L78.3851 48H78.388ZM79.9484 43.5428C79.7253 43.5428 79.5289 43.5949 79.3593 43.6977C79.1898 43.8005 79.0485 43.9628 78.9339 44.1817C78.8194 44.4006 78.7629 44.624 78.7629 44.8533C78.7629 45.1527 78.8491 45.3939 79.0202 45.5756C79.1913 45.7573 79.4174 45.8496 79.6985 45.8496C80.0257 45.8496 80.3024 45.7275 80.5315 45.4833C80.759 45.239 80.8736 44.9233 80.8736 44.5376C80.8736 44.2398 80.7873 44 80.6148 43.8168C80.4422 43.6337 80.2206 43.5428 79.9484 43.5428V43.5428Z" fill="#404041"/>
<path d="M83.3086 48H82.3789L83.0869 42.8131H84.0017L83.9467 43.2256C84.1475 43.0335 84.3334 42.901 84.5075 42.8265C84.6815 42.752 84.8763 42.7163 85.0935 42.7163C85.5933 42.7163 85.989 42.901 86.282 43.2718C86.575 43.6411 86.7208 44.0715 86.7208 44.56C86.7208 44.9352 86.6271 45.2912 86.4382 45.6322C86.2508 45.9717 85.9979 46.2368 85.6811 46.4259C85.3642 46.6151 85.034 46.7104 84.6904 46.7104C84.4584 46.7104 84.2442 46.6568 84.0463 46.5495C83.8485 46.4423 83.6879 46.2874 83.5629 46.0819L83.3056 48H83.3086ZM84.8689 43.5428C84.6458 43.5428 84.4494 43.5949 84.2799 43.6977C84.1103 43.8005 83.969 43.9628 83.8545 44.1817C83.7399 44.4006 83.6834 44.624 83.6834 44.8533C83.6834 45.1527 83.7697 45.3939 83.9407 45.5756C84.1118 45.7573 84.3379 45.8496 84.619 45.8496C84.9463 45.8496 85.2229 45.7275 85.452 45.4833C85.6796 45.239 85.7941 44.9233 85.7941 44.5376C85.7941 44.2398 85.7078 44 85.5353 43.8168C85.3627 43.6337 85.1411 43.5428 84.8689 43.5428V43.5428Z" fill="#404041"/>
<path d="M87.8805 42.8135H88.8028L88.2911 46.611H87.3629L87.8805 42.8135ZM88.5202 41.2603C88.6778 41.2603 88.8132 41.3168 88.9262 41.43C89.0393 41.5432 89.0958 41.6787 89.0958 41.8366C89.0958 41.9944 89.0393 42.13 88.9262 42.2431C88.8132 42.3563 88.6778 42.4129 88.5202 42.4129C88.3625 42.4129 88.2271 42.3563 88.1141 42.2431C88.001 42.13 87.9445 41.9944 87.9445 41.8366C87.9445 41.6787 88.001 41.5432 88.1141 41.43C88.2271 41.3168 88.3625 41.2603 88.5202 41.2603Z" fill="#404041"/>
<path d="M89.9254 42.8131H90.8536L90.8015 43.1988C91.157 42.8771 91.5274 42.7163 91.9112 42.7163C92.2399 42.7163 92.5077 42.8206 92.7174 43.029C92.9271 43.2375 93.0312 43.4996 93.0312 43.8168C93.0312 43.9658 93.0119 44.1876 92.9717 44.484L92.6817 46.6121H91.7535L92.0376 44.5346C92.0659 44.3202 92.0793 44.1594 92.0793 44.0536C92.0793 43.9002 92.0361 43.7826 91.9484 43.6992C91.8606 43.6158 91.7371 43.5756 91.5765 43.5756C91.4159 43.5756 91.2641 43.6292 91.108 43.7379C90.9518 43.8466 90.8313 43.9955 90.748 44.1876C90.6647 44.3798 90.5873 44.7401 90.5174 45.2673L90.3389 46.6106H89.4108L89.9284 42.8131H89.9254Z" fill="#404041"/>
<path d="M96.7399 45.5001L97.5595 45.926C97.3765 46.1673 97.1326 46.3579 96.8292 46.4994C96.5257 46.6394 96.1895 46.7108 95.8192 46.7108C95.2406 46.7108 94.7839 46.5485 94.4507 46.2224C94.1175 45.8962 93.9509 45.4644 93.9509 44.9238C93.9509 44.3073 94.1592 43.786 94.5771 43.3586C94.9951 42.9312 95.4979 42.7183 96.0884 42.7183C96.4439 42.7183 96.7607 42.7957 97.0389 42.9521C97.317 43.1084 97.5357 43.3348 97.6963 43.6326C97.857 43.9305 97.9373 44.2536 97.9373 44.6036C97.9373 44.7123 97.9254 44.8404 97.9031 44.9878H94.8776C94.8865 45.2514 94.9728 45.4629 95.1379 45.6192C95.303 45.7756 95.5276 45.8545 95.8162 45.8545C96.1643 45.8545 96.4737 45.7384 96.7429 45.5046L96.7399 45.5001ZM96.9764 44.3013C96.9065 44.069 96.7905 43.8918 96.6283 43.7726C96.4662 43.6535 96.2699 43.5924 96.0393 43.5924C95.8088 43.5924 95.6065 43.6535 95.422 43.7771C95.2376 43.9007 95.0992 44.0749 95.004 44.3013H96.9779H96.9764Z" fill="#404041"/>
<path d="M101.271 43.3433L100.827 44.0552C100.713 43.8854 100.594 43.7603 100.468 43.6799C100.341 43.5995 100.224 43.5593 100.115 43.5593C100.032 43.5593 99.9603 43.5831 99.9023 43.6292C99.8443 43.6754 99.8145 43.7275 99.8145 43.7856C99.8145 43.8437 99.8383 43.8973 99.8844 43.9524C99.9291 44.009 100.063 44.1162 100.286 44.2771C100.643 44.5332 100.878 44.7521 100.991 44.9353C101.104 45.1185 101.161 45.3165 101.161 45.531C101.161 45.8124 101.045 46.079 100.814 46.3307C100.584 46.5823 100.247 46.7074 99.8086 46.7074C99.5557 46.7074 99.3251 46.6568 99.1169 46.5541C98.9087 46.4513 98.6766 46.2637 98.4208 45.9926L98.9964 45.3225C99.2567 45.6665 99.5408 45.8392 99.8502 45.8392C99.9737 45.8392 100.072 45.8094 100.145 45.7499C100.218 45.6903 100.255 45.6203 100.255 45.5384C100.255 45.4729 100.227 45.4059 100.172 45.3374C100.116 45.2689 99.9633 45.1453 99.7149 44.9695C99.4263 44.764 99.2285 44.5898 99.1184 44.4424C98.9652 44.2368 98.8878 44.0209 98.8878 43.7931C98.8878 43.4744 99.0083 43.2152 99.2493 43.0142C99.4903 42.8132 99.7744 42.7134 100.102 42.7134C100.332 42.7134 100.551 42.7685 100.758 42.8772C100.964 42.9859 101.137 43.1408 101.274 43.3418L101.271 43.3433Z" fill="#404041"/>
<path d="M104.619 43.3433L104.176 44.0552C104.061 43.8854 103.942 43.7603 103.816 43.6799C103.689 43.5995 103.572 43.5593 103.463 43.5593C103.38 43.5593 103.309 43.5831 103.251 43.6292C103.193 43.6754 103.163 43.7275 103.163 43.7856C103.163 43.8437 103.187 43.8973 103.233 43.9524C103.277 44.009 103.411 44.1162 103.634 44.2771C103.991 44.5332 104.226 44.7521 104.339 44.9353C104.453 45.1185 104.509 45.3165 104.509 45.531C104.509 45.8124 104.393 46.079 104.162 46.3307C103.932 46.5823 103.596 46.7074 103.157 46.7074C102.904 46.7074 102.674 46.6568 102.465 46.5541C102.257 46.4513 102.025 46.2637 101.769 45.9926L102.345 45.3225C102.605 45.6665 102.889 45.8392 103.199 45.8392C103.322 45.8392 103.42 45.8094 103.493 45.7499C103.566 45.6903 103.603 45.6203 103.603 45.5384C103.603 45.4729 103.575 45.4059 103.52 45.3374C103.465 45.2689 103.312 45.1453 103.063 44.9695C102.775 44.764 102.577 44.5898 102.467 44.4424C102.314 44.2368 102.236 44.0209 102.236 43.7931C102.236 43.4744 102.357 43.2152 102.598 43.0142C102.839 42.8132 103.123 42.7134 103.45 42.7134C103.681 42.7134 103.899 42.7685 104.106 42.8772C104.313 42.9859 104.485 43.1408 104.622 43.3418L104.619 43.3433Z" fill="#404041"/>
</svg>
