<svg width="162" height="155" viewBox="0 0 162 155" fill="none" xmlns="http://www.w3.org/2000/svg">
<path d="M81.6973 12.7494L50.5012 19.9624C22.6626 26.3992 6.37207 59.198 14.232 93.1919C22.092 127.186 51.1264 149.505 78.9653 143.068L110.301 135.822C138.56 129.289 155.13 96.4252 147.27 62.4313C139.269 28.4699 109.955 6.21568 81.6973 12.7494V12.7494ZM24.3648 56.0694L45.3487 51.2175C44.3385 55.1354 43.6731 59.2685 43.32 63.4766L43.0935 62.4969L21.6899 67.4457C22.2151 63.3461 23.118 59.5999 24.3649 56.0694L24.3648 56.0694ZM21.1121 76.4218L43.0757 71.3435C43.12 74.7225 43.509 78.3169 44.1458 81.7068L21.9021 86.8499C21.4059 83.4275 21.1564 79.8009 21.1121 76.4218L21.1121 76.4218ZM23.9075 95.523L46.0105 90.4124C46.9587 93.8775 48.2952 97.1056 49.5982 100.194L27.7752 105.239C26.3317 102.184 24.9639 98.8159 23.9075 95.523L23.9075 95.523ZM39.6318 122.098C36.9618 119.474 34.5069 116.504 32.2668 113.191L53.5307 108.274L53.3042 107.294C55.4687 110.92 57.8809 114.342 60.5084 117.419L39.6641 122.238L39.6318 122.098ZM76.992 134.534C67.1998 136.798 57.244 134.532 48.4919 129.187L67.937 124.691L67.9047 124.551C72.2976 128.252 77.2599 131.231 82.3079 133.306L76.992 134.534ZM48.6908 41.4543L29.2135 45.8108C34.6982 37.027 42.6807 30.7601 52.4737 28.4958L57.9295 27.2344C54.1638 31.3462 51.1527 36.1698 48.6904 41.4545L48.6908 41.4543ZM112.158 48.8854C112.352 49.7246 111.814 50.5861 110.975 50.7801L100.763 53.1413C102.615 54.7762 104.143 56.9278 105.253 59.1765L112.528 57.4945C113.367 57.3004 114.229 57.8383 114.423 58.6775L115.814 64.6924C116.008 65.5316 115.47 66.393 114.631 66.5871L107.356 68.2691C107.392 77.9876 100.659 86.4709 91.1455 88.6705L89.7461 88.994L114.613 104.761C115.13 105.084 115.431 105.751 115.282 106.375C115.131 106.999 114.669 107.548 114.109 107.678L104.876 109.813C104.456 109.91 104.004 109.867 103.659 109.652L78.9337 93.8522C78.5889 93.6369 78.3523 93.2496 78.2553 92.83L76.1204 83.5968C75.9264 82.7576 76.4643 81.8962 77.3035 81.7022L88.9145 79.0175C93.1116 78.0471 96.3391 74.7956 97.2513 70.4584L75.8477 75.4073C75.0085 75.6013 74.1471 75.0634 73.953 74.2242L72.5623 68.2094C72.3683 67.3702 72.9061 66.5087 73.7454 66.3147L95.1489 61.3658C92.4566 58.009 88.0982 56.3646 83.9012 57.335L72.2901 60.0197C71.4509 60.2137 70.5895 59.6759 70.3954 58.8366L68.8752 52.2617C68.6811 51.4225 69.219 50.5611 70.0582 50.367L108.808 41.4073C109.648 41.2133 110.509 41.7512 110.703 42.5904L112.158 48.8854Z" fill="#626676"/>
</svg>
