<svg width="257" height="159" viewBox="0 0 257 159" fill="none" xmlns="http://www.w3.org/2000/svg">
<path d="M98.5152 110.262C98.5152 113.023 100.754 115.262 103.515 115.262H252C254.761 115.262 257 113.023 257 110.262V82.8994C257 79.9868 254.52 77.6907 251.617 77.9141L219.917 80.3525C218.683 80.4475 217.458 80.0814 216.478 79.3252L190.471 59.2493C189.833 58.7571 189.324 58.118 188.986 57.3866L180.884 39.8313C180.63 39.2817 180.478 38.6906 180.436 38.0867L178.085 4.64927C177.9 2.03042 175.722 0 173.097 0H103.515C100.754 0 98.5152 2.23858 98.5152 5V110.262ZM249.796 103.058C249.796 105.819 247.558 108.058 244.796 108.058H110.719C107.958 108.058 105.719 105.819 105.719 103.058V12.2039C105.719 9.44243 107.958 7.20385 110.719 7.20385H172.758C175.519 7.20385 177.758 9.44243 177.758 12.2039V37.7621C177.758 38.5751 177.956 39.3758 178.335 40.0949L191.396 64.8559C191.792 65.6063 192.373 66.2436 193.083 66.7079L216.572 82.0665C217.498 82.6717 218.598 82.953 219.701 82.8663L244.404 80.9239C247.311 80.6954 249.796 82.9926 249.796 85.9086V103.058Z" fill="#3C3F4E"/>
<path d="M202.611 158.485C213.776 158.485 222.781 149.48 222.781 138.314C222.781 127.149 213.776 118.144 202.611 118.144C191.446 118.144 182.441 127.149 182.441 138.314C182.441 149.48 191.446 158.485 202.611 158.485ZM202.611 125.348C209.815 125.348 215.577 131.111 215.577 138.314C215.577 145.518 209.815 151.281 202.611 151.281C195.407 151.281 189.645 145.518 189.645 138.314C189.645 131.111 195.407 125.348 202.611 125.348Z" fill="#3C3F4E"/>
<path d="M50.9703 158.485C62.1358 158.485 71.1406 149.48 71.1406 138.314C71.1406 127.149 62.1358 118.144 50.9703 118.144C39.8049 118.144 30.8001 127.149 30.8001 138.314C30.7981 149.48 39.8028 158.485 50.9703 158.485V158.485ZM50.9703 125.348C58.1742 125.348 63.9368 131.111 63.9368 138.314C63.9368 145.518 58.1742 151.281 50.9703 151.281C43.7665 151.281 38.0039 145.518 38.0039 138.314C38.0019 131.111 43.7665 125.348 50.9703 125.348V125.348Z" fill="#3C3F4E"/>
<path d="M257 126.067C257 124.078 255.387 122.465 253.398 122.465H235.388C233.399 122.465 231.787 124.078 231.787 126.067V126.067C231.787 128.057 233.399 129.669 235.388 129.669H253.398C255.387 129.669 257 128.057 257 126.067V126.067Z" fill="#3C3F4E"/>
<path d="M170.555 126.067C170.555 124.078 168.942 122.465 166.953 122.465H80.5065C78.5172 122.465 76.9046 124.078 76.9046 126.067V126.067C76.9046 128.057 78.5172 129.669 80.5065 129.669H166.953C168.942 129.669 170.555 128.057 170.555 126.067V126.067Z" fill="#3C3F4E"/>
<path d="M9.1876 129.669H19.274C21.2633 129.669 22.8759 128.057 22.8759 126.067V126.067C22.8759 124.078 21.2633 122.465 19.274 122.465H17.1372C14.2426 122.465 11.7861 120.311 11.3103 117.456C10.9936 115.556 10.6311 113.474 10.2692 111.3C7.65427 97.9642 6.93772 91.6519 6.87903 88.6424C6.85122 87.2163 7.66643 86.0036 8.90822 85.3018C13.8223 82.5247 26.0025 76.4693 37.4117 71.0484C38.0413 70.7493 38.7228 70.5806 39.4062 70.4439C46.2989 69.0654 50.0743 60.843 53.8521 52.9472C56.7345 46.8249 59.9764 39.6211 63.5783 39.6211H91.3121C93.3014 39.6211 94.9141 38.0085 94.9141 36.0192V36.0192C94.9141 34.0299 93.3014 32.4172 91.3121 32.4172H63.5783C55.2929 32.4172 51.3313 42.1414 47.3697 50.7866C44.4873 56.9088 41.2474 64.8346 37.6455 64.8346H37.1896C37.0162 64.8346 36.8452 64.7942 36.6901 64.7167V64.7167C36.3846 64.5639 36.0319 64.5566 35.7226 64.7015C24.1258 70.1358 4.47346 79.2771 1.98805 81.7651C-0.532476 84.2856 -1.25407 90.0505 3.42925 112.741C4.84902 119.484 5.56844 126.226 5.5895 126.425C5.59017 126.431 5.59033 126.433 5.59102 126.439V126.439C5.79342 128.272 7.34352 129.669 9.1876 129.669V129.669Z" fill="#3C3F4E"/>
</svg>
