<svg width="202" height="124" viewBox="0 0 202 124" fill="none" xmlns="http://www.w3.org/2000/svg">
<path d="M77.0846 86.407C77.0846 88.5678 78.8362 90.3194 80.9969 90.3194H197.181C199.342 90.3194 201.094 88.5678 201.094 86.407V64.9969C201.094 62.718 199.154 60.9213 196.881 61.0961L172.077 63.0041C171.112 63.0784 170.153 62.792 169.387 62.2003L149.037 46.4915C148.538 46.1063 148.139 45.6063 147.875 45.034L141.535 31.2975C141.337 30.8675 141.218 30.405 141.185 29.9325L139.345 3.76876C139.201 1.71959 137.496 0.130859 135.442 0.130859H80.9969C78.8362 0.130859 77.0846 1.88247 77.0846 4.0432V86.407ZM195.457 80.7703C195.457 82.931 193.705 84.6826 191.545 84.6826H86.6337C84.473 84.6826 82.7213 82.931 82.7213 80.7703V9.67997C82.7213 7.51925 84.473 5.76764 86.6337 5.76764H135.177C137.338 5.76764 139.089 7.51925 139.089 9.67998V29.6785C139.089 30.3146 139.244 30.9412 139.541 31.5038L149.761 50.8785C150.071 51.4656 150.525 51.9643 151.081 52.3276L169.46 64.3453C170.185 64.8188 171.045 65.0389 171.908 64.971L191.238 63.4512C193.513 63.2724 195.457 65.0699 195.457 67.3515V80.7703Z" fill="#3C3F4E"/>
<path d="M158.536 124.14C167.273 124.14 174.319 117.094 174.319 108.357C174.319 99.6207 167.273 92.5748 158.536 92.5748C149.8 92.5748 142.754 99.6207 142.754 108.357C142.754 117.094 149.8 124.14 158.536 124.14ZM158.536 98.2116C164.173 98.2116 168.682 102.721 168.682 108.357C168.682 113.994 164.173 118.503 158.536 118.503C152.899 118.503 148.39 113.994 148.39 108.357C148.39 102.721 152.899 98.2116 158.536 98.2116Z" fill="#3C3F4E"/>
<path d="M39.8822 124.14C48.6188 124.14 55.6647 117.094 55.6647 108.357C55.6647 99.6207 48.6188 92.5748 39.8822 92.5748C31.1455 92.5748 24.0996 99.6207 24.0996 108.357C24.098 117.094 31.1439 124.14 39.8822 124.14ZM39.8822 98.2116C45.5189 98.2116 50.028 102.721 50.028 108.357C50.028 113.994 45.5189 118.503 39.8822 118.503C34.2454 118.503 29.7364 113.994 29.7364 108.357C29.7348 102.721 34.2454 98.2116 39.8822 98.2116Z" fill="#3C3F4E"/>
<path d="M201.094 98.7743C201.094 97.2178 199.832 95.9559 198.275 95.9559H184.183C182.627 95.9559 181.365 97.2178 181.365 98.7743C181.365 100.331 182.627 101.593 184.183 101.593H198.275C199.832 101.593 201.094 100.331 201.094 98.7743Z" fill="#3C3F4E"/>
<path d="M133.453 98.7743C133.453 97.2178 132.191 95.9559 130.635 95.9559H62.9932C61.4366 95.9559 60.1748 97.2178 60.1748 98.7743C60.1748 100.331 61.4366 101.593 62.9932 101.593H130.635C132.191 101.593 133.453 100.331 133.453 98.7743Z" fill="#3C3F4E"/>
<path d="M7.18872 101.593H15.081C16.6376 101.593 17.8994 100.331 17.8994 98.7744C17.8994 97.2178 16.6376 95.956 15.081 95.956H13.409C11.1441 95.956 9.22198 94.2706 8.84964 92.0365C8.60185 90.5497 8.31824 88.9201 8.03504 87.2194C5.98894 76.7846 5.42826 71.8454 5.38234 69.4906C5.36058 68.3747 5.99846 67.4258 6.97012 66.8767C10.8153 64.7037 20.3458 59.9655 29.2732 55.7238C29.7658 55.4898 30.299 55.3578 30.8338 55.2509C36.2271 54.1722 39.1813 47.7385 42.1372 41.5602C44.3926 36.7698 46.9293 31.133 49.7477 31.133H71.4485C73.0051 31.133 74.2669 29.8712 74.2669 28.3146C74.2669 26.7581 73.0051 25.4962 71.4485 25.4962H49.7477C43.2646 25.4962 40.1648 33.1051 37.0649 39.8696C34.8096 44.6601 32.2745 50.8617 29.4561 50.8617H29.0994C28.9637 50.8617 28.8299 50.8301 28.7086 50.7695C28.4695 50.6499 28.1935 50.6442 27.9515 50.7576C18.8774 55.0097 3.50006 62.1625 1.55531 64.1093C-0.416924 66.0815 -0.981552 70.5924 2.683 88.347C3.79393 93.6228 4.35684 98.8986 4.37332 99.0542C4.37385 99.0591 4.37397 99.0602 4.37451 99.0651C4.53288 100.499 5.74579 101.593 7.18872 101.593Z" fill="#3C3F4E"/>
</svg>
