<svg width="32" height="32" viewBox="0 0 32 32" fill="none" xmlns="http://www.w3.org/2000/svg">
<circle cx="16" cy="16" r="16" fill="url(#paint0_linear_34_2950)"/>
<g clip-path="url(#clip0_34_2950)">
<path d="M12.1905 11.4286V9.14289C12.1905 8.94082 12.2707 8.74702 12.4136 8.60414C12.5565 8.46125 12.7503 8.38098 12.9524 8.38098H22.0952C22.2973 8.38098 22.4911 8.46125 22.634 8.60414C22.7769 8.74702 22.8571 8.94082 22.8571 9.14289V19.8096C22.8571 20.0116 22.7769 20.2054 22.634 20.3483C22.4911 20.4912 22.2973 20.5715 22.0952 20.5715H19.8095V22.8572C19.8095 23.2777 19.4667 23.6191 19.0423 23.6191H9.91009C9.80962 23.6197 9.71001 23.6004 9.617 23.5624C9.52399 23.5244 9.43941 23.4684 9.36812 23.3976C9.29682 23.3268 9.24022 23.2426 9.20156 23.1499C9.1629 23.0571 9.14295 22.9577 9.14285 22.8572L9.14514 12.1905C9.14514 11.7699 9.488 11.4286 9.91238 11.4286H12.1905ZM13.7143 11.4286H19.8095V19.0476H21.3333V9.90479H13.7143V11.4286Z" fill="#1E2130"/>
</g>
<defs>
<linearGradient id="paint0_linear_34_2950" x1="0" y1="0" x2="32" y2="30.8293" gradientUnits="userSpaceOnUse">
<stop stop-color="#F6C833"/>
<stop offset="1" stop-color="#F69133"/>
</linearGradient>
<clipPath id="clip0_34_2950">
<rect width="18.2857" height="18.2857" fill="white" transform="translate(6.85715 6.85718)"/>
</clipPath>
</defs>
</svg>
