<svg width="103" height="121" viewBox="0 0 103 121" fill="none" xmlns="http://www.w3.org/2000/svg">
<path d="M64.5548 9.2885L40.145 14.9325C18.3621 19.969 5.61533 45.633 11.7655 72.2322C17.9157 98.8313 40.6342 116.295 62.4172 111.258L86.9365 105.589C109.048 100.477 122.013 74.7621 115.863 48.163C109.603 21.5893 86.6657 4.1761 64.5548 9.2885ZM19.6941 43.185L36.1133 39.3886C35.3228 42.4542 34.8022 45.6882 34.5259 48.9809L34.3486 48.2143L17.601 52.0866C18.012 48.8788 18.7184 45.9475 19.6941 43.185L19.6941 43.185ZM17.1489 59.1101L34.3348 55.1365C34.3694 57.7805 34.6738 60.5929 35.1721 63.2455L17.7671 67.2698C17.3788 64.5918 17.1836 61.7541 17.149 59.1101L17.1489 59.1101ZM19.3362 74.0562L36.6311 70.0573C37.373 72.7686 38.4188 75.2945 39.4384 77.7108L22.3626 81.659C21.2331 79.2682 20.1628 76.6328 19.3362 74.0562L19.3362 74.0562ZM31.64 94.8506C29.5508 92.7968 27.6299 90.473 25.8771 87.8805L42.5155 84.0334L42.3382 83.2668C44.0319 86.104 45.9193 88.7813 47.9752 91.1887L31.6653 94.9599L31.64 94.8506ZM60.8731 104.581C53.211 106.352 45.421 104.579 38.5728 100.397L53.7879 96.8788L53.7627 96.7696C57.1999 99.6653 61.0828 101.996 65.0327 103.62L60.8731 104.581ZM38.7284 31.7492L23.488 35.158C27.7796 28.2849 34.0257 23.3814 41.6884 21.6096L45.9574 20.6225C43.0108 23.8399 40.6548 27.6143 38.728 31.7494L38.7284 31.7492ZM88.3891 37.5638C88.541 38.2204 88.1201 38.8945 87.4634 39.0463L79.4729 40.8939C80.9222 42.1731 82.1182 43.8567 82.9868 45.6162L88.679 44.3001C89.3357 44.1483 90.0097 44.5691 90.1615 45.2258L91.2497 49.9322C91.4016 50.5889 90.9807 51.2629 90.324 51.4148L84.6319 52.7309C84.6599 60.3353 79.3915 66.9732 71.9478 68.6943L70.8528 68.9475L90.3107 81.2846C90.715 81.537 90.9507 82.0593 90.8335 82.5473C90.7155 83.0354 90.3541 83.4657 89.9158 83.567L82.6912 85.2375C82.3629 85.3134 82.0093 85.2801 81.7395 85.1117L62.3924 72.7489C62.1226 72.5804 61.9375 72.2773 61.8616 71.949L60.1911 64.7244C60.0393 64.0677 60.4602 63.3937 61.1168 63.2418L70.2021 61.1411C73.4862 60.3818 76.0116 57.8377 76.7254 54.444L59.9778 58.3163C59.3211 58.4681 58.6471 58.0472 58.4952 57.3906L57.407 52.6841C57.2552 52.0275 57.6761 51.3534 58.3327 51.2016L75.0803 47.3293C72.9737 44.7027 69.5634 43.416 66.2794 44.1753L57.1941 46.276C56.5374 46.4278 55.8634 46.007 55.7115 45.3503L54.522 40.2056C54.3702 39.549 54.791 38.8749 55.4477 38.7231L85.7685 31.7124C86.4252 31.5606 87.0992 31.9815 87.251 32.6381L88.3891 37.5638Z" fill="#626676"/>
</svg>
