<svg width="75" height="76" viewBox="0 0 75 76" fill="none" xmlns="http://www.w3.org/2000/svg">
<path d="M65.625 61.4375H9.375V36.4375L37.5 9.875L65.625 36.4375V61.4375Z" fill="#E8EAF6"/>
<path d="M60.9375 33.3125L53.125 25.5V14.5625H60.9375V33.3125ZM9.375 61.4375H65.625V69.25H9.375V61.4375Z" fill="#C5CAE9"/>
<path d="M37.5 7.21875L6.25 36.2812L9.375 39.7188L37.5 13.625L65.625 39.7188L68.75 36.2812L37.5 7.21875Z" fill="#B71C1C"/>
<path d="M28.125 44.25H46.875V69.25H28.125V44.25Z" fill="#D84315"/>
<path d="M32.8125 27.0625H42.1875V36.4375H32.8125V27.0625Z" fill="#01579B"/>
<path d="M42.9688 55.9688C42.5 55.9688 42.1875 56.2812 42.1875 56.75V59.875C42.1875 60.3438 42.5 60.6562 42.9688 60.6562C43.4375 60.6562 43.75 60.3438 43.75 59.875V56.75C43.75 56.2812 43.4375 55.9688 42.9688 55.9688Z" fill="#FF8A65"/>
</svg>
