<svg width="28" height="29" viewBox="0 0 28 29" fill="none" xmlns="http://www.w3.org/2000/svg">
<path fill-rule="evenodd" clip-rule="evenodd" d="M0 14.0918C0 6.35981 6.26801 0.0917969 14 0.0917969C21.732 0.0917969 28 6.35981 28 14.0918C28 21.8238 21.732 28.0918 14 28.0918C6.26801 28.0918 0 21.8238 0 14.0918ZM14.0007 6.62513C11.9729 6.62513 11.7184 6.634 10.9219 6.67024C10.127 6.70664 9.58443 6.83249 9.10967 7.01713C8.61858 7.20785 8.20199 7.46296 7.78697 7.87814C7.37163 8.29317 7.11652 8.70975 6.92518 9.20069C6.74007 9.67561 6.61407 10.2183 6.57829 11.0129C6.54267 11.8094 6.53333 12.064 6.53333 14.0919C6.53333 16.1197 6.54236 16.3734 6.57844 17.1699C6.615 17.9648 6.74085 18.5074 6.92534 18.9821C7.11621 19.4732 7.37132 19.8898 7.7865 20.3048C8.20137 20.7202 8.61795 20.9759 9.10874 21.1666C9.58381 21.3513 10.1265 21.4771 10.9213 21.5135C11.7177 21.5498 11.9721 21.5586 13.9998 21.5586C16.0278 21.5586 16.2815 21.5498 17.0779 21.5135C17.8728 21.4771 18.416 21.3513 18.8911 21.1666C19.382 20.9759 19.798 20.7202 20.2129 20.3048C20.6282 19.8898 20.8833 19.4732 21.0747 18.9823C21.2582 18.5074 21.3842 17.9646 21.4216 17.17C21.4573 16.3736 21.4667 16.1197 21.4667 14.0919C21.4667 12.064 21.4573 11.8095 21.4216 11.0131C21.3842 10.2182 21.2582 9.67561 21.0747 9.20085C20.8833 8.70975 20.6282 8.29317 20.2129 7.87814C19.7975 7.46281 19.3822 7.20769 18.8906 7.01713C18.4146 6.83249 17.8717 6.70664 17.0768 6.67024C16.2804 6.634 16.0268 6.62513 13.9984 6.62513H14.0007Z" fill="#888EAA"/>
<path fill-rule="evenodd" clip-rule="evenodd" d="M13.3309 7.9707C13.5297 7.97039 13.7515 7.9707 14.0007 7.9707C15.9943 7.9707 16.2306 7.97785 17.0179 8.01363C17.7459 8.04692 18.141 8.16857 18.4042 8.27077C18.7527 8.4061 19.0011 8.56788 19.2623 8.82922C19.5236 9.09056 19.6854 9.33945 19.821 9.6879C19.9232 9.95079 20.045 10.3459 20.0782 11.0739C20.1139 11.861 20.1217 12.0975 20.1217 14.0902C20.1217 16.0829 20.1139 16.3193 20.0782 17.1064C20.0449 17.8344 19.9232 18.2295 19.821 18.4924C19.6857 18.8409 19.5236 19.089 19.2623 19.3502C19.0009 19.6115 18.7528 19.7733 18.4042 19.9086C18.1413 20.0113 17.7459 20.1326 17.0179 20.1659C16.2308 20.2017 15.9943 20.2095 14.0007 20.2095C12.0069 20.2095 11.7706 20.2017 10.9835 20.1659C10.2555 20.1323 9.86039 20.0107 9.59703 19.9085C9.24858 19.7731 8.99969 19.6114 8.73836 19.35C8.47702 19.0887 8.31524 18.8404 8.17959 18.4918C8.07739 18.2289 7.95559 17.8338 7.92246 17.1058C7.88668 16.3187 7.87952 16.0822 7.87952 14.0883C7.87952 12.0944 7.88668 11.8592 7.92246 11.072C7.95575 10.344 8.07739 9.94892 8.17959 9.68572C8.31493 9.33727 8.47702 9.08838 8.73836 8.82704C8.99969 8.56571 9.24858 8.40393 9.59703 8.26828C9.86023 8.16561 10.2555 8.04428 10.9835 8.01083C11.6723 7.97972 11.9393 7.97039 13.3309 7.96883V7.9707ZM17.9864 9.21049C17.4917 9.21049 17.0904 9.61136 17.0904 10.1062C17.0904 10.6009 17.4917 11.0022 17.9864 11.0022C18.4811 11.0022 18.8824 10.6009 18.8824 10.1062C18.8824 9.61152 18.4811 9.21049 17.9864 9.21049ZM14.0007 10.2574C11.8831 10.2574 10.1662 11.9743 10.1662 14.0919C10.1662 16.2095 11.8831 17.9256 14.0007 17.9256C16.1183 17.9256 17.8346 16.2095 17.8346 14.0919C17.8346 11.9743 16.1183 10.2574 14.0007 10.2574Z" fill="#888EAA"/>
<path fill-rule="evenodd" clip-rule="evenodd" d="M14.0007 11.603C15.3752 11.603 16.4896 12.7172 16.4896 14.0919C16.4896 15.4664 15.3752 16.5808 14.0007 16.5808C12.626 16.5808 11.5118 15.4664 11.5118 14.0919C11.5118 12.7172 12.626 11.603 14.0007 11.603Z" fill="#888EAA"/>
</svg>
