<svg width="75" height="75" viewBox="0 0 75 75" fill="none" xmlns="http://www.w3.org/2000/svg">
<path d="M68.75 56.25H46.875V25C46.875 23.2812 48.2812 21.875 50 21.875H62.5C63.4375 21.875 64.375 22.3438 65 23.125L74.375 35.1562C74.8437 35.7812 75 36.4063 75 37.0313V50C75 53.4375 72.1875 56.25 68.75 56.25Z" fill="#FF7A50"/>
<path d="M12.5 56.25H46.875V20.3125C46.875 16.875 44.0625 14.0625 40.625 14.0625H6.25V50C6.25 53.4375 9.0625 56.25 12.5 56.25Z" fill="#52A1FF"/>
<path d="M0 14.0625H15.625V17.1875H0V14.0625ZM0 21.875H15.625V25H0V21.875ZM0 29.6875H15.625V32.8125H0V29.6875ZM0 37.5H15.625V40.625H0V37.5Z" fill="#455A64"/>
<path d="M6.25 17.1875H31.25V20.3125H6.25V17.1875ZM6.25 25H25V28.125H6.25V25ZM6.25 32.8125H18.75V35.9375H6.25V32.8125ZM6.25 40.625H12.5V43.75H6.25V40.625Z" fill="#FF7A50"/>
<path d="M60.9375 64.0625C65.2522 64.0625 68.75 60.5647 68.75 56.25C68.75 51.9353 65.2522 48.4375 60.9375 48.4375C56.6228 48.4375 53.125 51.9353 53.125 56.25C53.125 60.5647 56.6228 64.0625 60.9375 64.0625Z" fill="#37474F"/>
<path d="M25 64.0625C29.3147 64.0625 32.8125 60.5647 32.8125 56.25C32.8125 51.9353 29.3147 48.4375 25 48.4375C20.6853 48.4375 17.1875 51.9353 17.1875 56.25C17.1875 60.5647 20.6853 64.0625 25 64.0625Z" fill="#37474F"/>
<path d="M60.9375 60.1562C63.0949 60.1562 64.8438 58.4074 64.8438 56.25C64.8438 54.0926 63.0949 52.3438 60.9375 52.3438C58.7801 52.3438 57.0312 54.0926 57.0312 56.25C57.0312 58.4074 58.7801 60.1562 60.9375 60.1562Z" fill="#78909C"/>
<path d="M25 60.1562C27.1574 60.1562 28.9062 58.4074 28.9062 56.25C28.9062 54.0926 27.1574 52.3438 25 52.3438C22.8426 52.3438 21.0938 54.0926 21.0938 56.25C21.0938 58.4074 22.8426 60.1562 25 60.1562Z" fill="#78909C"/>
<path d="M68.75 40.625H63.125C62.6563 40.625 62.3438 40.4688 62.0313 40.1563L59.8437 37.9687C59.5312 37.6562 59.2187 37.5 58.75 37.5H53.125C52.1875 37.5 51.5625 36.875 51.5625 35.9375V26.5625C51.5625 25.625 52.1875 25 53.125 25H61.7188C62.1875 25 62.6562 25.1562 62.9687 25.625L70 34.0625C70.1562 34.375 70.3125 34.6875 70.3125 35V39.0625C70.3125 40 69.6875 40.625 68.75 40.625Z" fill="#455A64"/>
</svg>
