<svg width="84" height="84" viewBox="0 0 84 84" fill="none" xmlns="http://www.w3.org/2000/svg">
<g clip-path="url(#clip0_34_2933)">
<path d="M7 63H31.5V28C31.5 26.075 29.925 24.5 28 24.5H14C12.95 24.5 11.9 25.025 11.2 25.9L0.700003 39.375C0.175001 40.075 0 40.775 0 41.475V56C0 59.85 3.15 63 7 63Z" fill="#FF7A50"/>
<path d="M70.0001 63H31.5001V22.75C31.5001 18.9 34.6501 15.75 38.5001 15.75H77.0001V56C77.0001 59.85 73.8501 63 70.0001 63Z" fill="#52A1FF"/>
<path d="M84 15.75H66.5V19.25H84V15.75ZM84 24.5H66.5V28H84V24.5ZM84 33.25H66.5V36.75H84V33.25ZM84 42H66.5V45.5H84V42Z" fill="#455A64"/>
<path d="M77.0001 19.25H49.0001V22.75H77.0001V19.25ZM77.0001 28H56.0001V31.5H77.0001V28ZM77.0001 36.75H63.0001V40.25H77.0001V36.75ZM77.0001 45.5H70.0001V49H77.0001V45.5Z" fill="#FF7A50"/>
<path d="M15.75 71.75C10.9175 71.75 7 67.8325 7 63C7 58.1675 10.9175 54.25 15.75 54.25C20.5825 54.25 24.5 58.1675 24.5 63C24.5 67.8325 20.5825 71.75 15.75 71.75Z" fill="#37474F"/>
<path d="M55.9999 71.75C51.1674 71.75 47.2499 67.8325 47.2499 63C47.2499 58.1675 51.1674 54.25 55.9999 54.25C60.8324 54.25 64.7499 58.1675 64.7499 63C64.7499 67.8325 60.8324 71.75 55.9999 71.75Z" fill="#37474F"/>
<path d="M15.7499 67.375C13.3336 67.375 11.3749 65.4162 11.3749 63C11.3749 60.5838 13.3336 58.625 15.7499 58.625C18.1661 58.625 20.1249 60.5838 20.1249 63C20.1249 65.4162 18.1661 67.375 15.7499 67.375Z" fill="#78909C"/>
<path d="M56 67.375C53.5838 67.375 51.625 65.4162 51.625 63C51.625 60.5838 53.5838 58.625 56 58.625C58.4162 58.625 60.375 60.5838 60.375 63C60.375 65.4162 58.4162 67.375 56 67.375Z" fill="#78909C"/>
<path d="M7 45.5H13.3C13.825 45.5 14.175 45.325 14.525 44.975L16.975 42.525C17.325 42.175 17.675 42 18.2 42H24.5C25.55 42 26.25 41.3 26.25 40.25V29.75C26.25 28.7 25.55 28 24.5 28H14.875C14.35 28 13.825 28.175 13.475 28.7L5.6 38.15C5.425 38.5 5.25 38.85 5.25 39.2V43.75C5.25 44.8 5.95 45.5 7 45.5Z" fill="#455A64"/>
</g>
<defs>
<clipPath id="clip0_34_2933">
<rect width="84" height="84" fill="white" transform="matrix(-1 0 0 1 84 0)"/>
</clipPath>
</defs>
</svg>
