<svg width="120" height="120" viewBox="0 0 120 120" fill="none" xmlns="http://www.w3.org/2000/svg">
<path d="M10 90H45V40C45 37.25 42.75 35 40 35H20C18.5 35 17 35.75 16 37L1 56.25C0.250004 57.25 0 58.25 0 59.25V80C0 85.5 4.5 90 10 90Z" fill="#FF7A50"/>
<path d="M100 90H45V32.5C45 27 49.5 22.5 55 22.5H110V80C110 85.5 105.5 90 100 90Z" fill="#52A1FF"/>
<path d="M120 22.5H95V27.5H120V22.5ZM120 35H95V40H120V35ZM120 47.5H95V52.5H120V47.5ZM120 60H95V65H120V60Z" fill="#455A64"/>
<path d="M110 27.5H70V32.5H110V27.5ZM110 40H80V45H110V40ZM110 52.5H90V57.5H110V52.5ZM110 65H100V70H110V65Z" fill="#FF7A50"/>
<path d="M22.5 102.5C15.5964 102.5 10 96.9036 10 90C10 83.0964 15.5964 77.5 22.5 77.5C29.4036 77.5 35 83.0964 35 90C35 96.9036 29.4036 102.5 22.5 102.5Z" fill="#37474F"/>
<path d="M80 102.5C73.0964 102.5 67.5 96.9036 67.5 90C67.5 83.0964 73.0964 77.5 80 77.5C86.9036 77.5 92.5 83.0964 92.5 90C92.5 96.9036 86.9036 102.5 80 102.5Z" fill="#37474F"/>
<path d="M22.5 96.25C19.0482 96.25 16.25 93.4518 16.25 90C16.25 86.5482 19.0482 83.75 22.5 83.75C25.9518 83.75 28.75 86.5482 28.75 90C28.75 93.4518 25.9518 96.25 22.5 96.25Z" fill="#78909C"/>
<path d="M80 96.25C76.5482 96.25 73.75 93.4518 73.75 90C73.75 86.5482 76.5482 83.75 80 83.75C83.4518 83.75 86.25 86.5482 86.25 90C86.25 93.4518 83.4518 96.25 80 96.25Z" fill="#78909C"/>
<path d="M10 65H19C19.75 65 20.25 64.75 20.75 64.25L24.25 60.75C24.75 60.25 25.25 60 26 60H35C36.5 60 37.5 59 37.5 57.5V42.5C37.5 41 36.5 40 35 40H21.25C20.5 40 19.75 40.25 19.25 41L8 54.5C7.75 55 7.5 55.5 7.5 56V62.5C7.5 64 8.5 65 10 65Z" fill="#455A64"/>
</svg>
