<svg width="77" height="76" viewBox="0 0 77 76" fill="none" xmlns="http://www.w3.org/2000/svg">
<path d="M63.833 64.9167H13.1663C9.68301 64.9167 6.83301 62.0667 6.83301 58.5833V25.4917C6.83301 23.4333 7.78301 21.5333 9.52467 20.2667L38.4997 0L67.4747 20.2667C69.2163 21.375 70.1663 23.4333 70.1663 25.4917V58.5833C70.1663 62.0667 67.3163 64.9167 63.833 64.9167Z" fill="#78909C"/>
<path d="M22.667 1.58301H54.3337V50.6663H22.667V1.58301Z" fill="#AED581"/>
<path d="M21.083 0V52.25H55.9163V0H21.083ZM52.7497 49.0833H24.2497V3.16667H52.7497V49.0833Z" fill="#558B2F"/>
<path d="M54.3327 4.74967C54.3327 7.44134 53.8577 9.49967 51.166 9.49967C48.4743 9.49967 46.416 7.44134 46.416 4.74967C46.416 2.05801 48.4743 1.58301 51.166 1.58301C53.8577 1.58301 54.3327 2.05801 54.3327 4.74967ZM25.8327 1.58301C28.5243 1.58301 30.5827 2.05801 30.5827 4.74967C30.5827 7.44134 28.5243 9.49967 25.8327 9.49967C23.141 9.49967 22.666 7.44134 22.666 4.74967C22.666 2.05801 23.141 1.58301 25.8327 1.58301Z" fill="#558B2F"/>
<path d="M38.4997 15.8333C40.2486 15.8333 41.6663 14.4156 41.6663 12.6667C41.6663 10.9178 40.2486 9.5 38.4997 9.5C36.7508 9.5 35.333 10.9178 35.333 12.6667C35.333 14.4156 36.7508 15.8333 38.4997 15.8333Z" fill="#558B2F"/>
<path d="M38.5 41.167C43.7467 41.167 48 36.9137 48 31.667C48 26.4203 43.7467 22.167 38.5 22.167C33.2533 22.167 29 26.4203 29 31.667C29 36.9137 33.2533 41.167 38.5 41.167Z" fill="#558B2F"/>
<path d="M63.833 64.917H13.1663C9.68301 64.917 6.83301 62.067 6.83301 58.5837V26.917L38.4997 47.5003L70.1663 26.917V58.5837C70.1663 62.067 67.3163 64.917 63.833 64.917Z" fill="#CFD8DC"/>
</svg>
