<svg width="76" height="76" viewBox="0 0 76 76" fill="none" xmlns="http://www.w3.org/2000/svg">
<path d="M63.333 64.9167H12.6663C9.18301 64.9167 6.33301 62.0667 6.33301 58.5833V25.4917C6.33301 23.4333 7.28301 21.5333 9.02467 20.2667L37.9997 0L66.9747 20.2667C68.7163 21.375 69.6663 23.4333 69.6663 25.4917V58.5833C69.6663 62.0667 66.8163 64.9167 63.333 64.9167Z" fill="#78909C"/>
<path d="M22.167 1.58301H53.8337V50.6663H22.167V1.58301Z" fill="#AED581"/>
<path d="M20.583 0V52.25H55.4163V0H20.583ZM52.2497 49.0833H23.7497V3.16667H52.2497V49.0833Z" fill="#558B2F"/>
<path d="M53.8327 4.74967C53.8327 7.44134 53.3577 9.49967 50.666 9.49967C47.9743 9.49967 45.916 7.44134 45.916 4.74967C45.916 2.05801 47.9743 1.58301 50.666 1.58301C53.3577 1.58301 53.8327 2.05801 53.8327 4.74967ZM25.3327 1.58301C28.0243 1.58301 30.0827 2.05801 30.0827 4.74967C30.0827 7.44134 28.0243 9.49967 25.3327 9.49967C22.641 9.49967 22.166 7.44134 22.166 4.74967C22.166 2.05801 22.641 1.58301 25.3327 1.58301Z" fill="#558B2F"/>
<path d="M37.9997 15.8333C39.7486 15.8333 41.1663 14.4156 41.1663 12.6667C41.1663 10.9178 39.7486 9.5 37.9997 9.5C36.2508 9.5 34.833 10.9178 34.833 12.6667C34.833 14.4156 36.2508 15.8333 37.9997 15.8333Z" fill="#558B2F"/>
<path d="M38 41.167C43.2467 41.167 47.5 36.9137 47.5 31.667C47.5 26.4203 43.2467 22.167 38 22.167C32.7533 22.167 28.5 26.4203 28.5 31.667C28.5 36.9137 32.7533 41.167 38 41.167Z" fill="#558B2F"/>
<path d="M63.333 64.917H12.6663C9.18301 64.917 6.33301 62.067 6.33301 58.5837V26.917L37.9997 47.5003L69.6663 26.917V58.5837C69.6663 62.067 66.8163 64.917 63.333 64.917Z" fill="#CFD8DC"/>
</svg>
