<svg width="28" height="29" viewBox="0 0 28 29" fill="none" xmlns="http://www.w3.org/2000/svg">
<path fill-rule="evenodd" clip-rule="evenodd" d="M0 14.0918C0 6.35981 6.26801 0.0917969 14 0.0917969C21.732 0.0917969 28 6.35981 28 14.0918C28 21.8238 21.732 28.0918 14 28.0918C6.26801 28.0918 0 21.8238 0 14.0918ZM13.5807 11.4712L13.6101 11.9556L13.1204 11.8963C11.3382 11.6689 9.78113 10.8978 8.45911 9.60265L7.81279 8.96004L7.64632 9.43458C7.29378 10.4924 7.51901 11.6096 8.25347 12.3609C8.64517 12.7762 8.55704 12.8355 7.88134 12.5883C7.64632 12.5092 7.44067 12.4499 7.42109 12.4796C7.35254 12.5488 7.58756 13.4484 7.77362 13.8044C8.02823 14.2987 8.54725 14.7831 9.11523 15.0698L9.59507 15.2972L9.02709 15.3071C8.4787 15.3071 8.45911 15.317 8.51787 15.5246C8.71372 16.1672 9.48735 16.8494 10.3491 17.1459L10.9563 17.3536L10.4274 17.6699C9.64403 18.1247 8.72352 18.3817 7.803 18.4015C7.36233 18.4114 7 18.4509 7 18.4806C7 18.5795 8.19471 19.1331 8.88999 19.3506C10.9758 19.9932 13.4534 19.7164 15.314 18.619C16.636 17.838 17.958 16.2858 18.575 14.7831C18.9079 13.9823 19.2409 12.5191 19.2409 11.8172C19.2409 11.3624 19.2703 11.3031 19.8187 10.7594C20.1418 10.443 20.4454 10.097 20.5041 9.9981C20.6021 9.81026 20.5923 9.81026 20.0929 9.97833C19.2605 10.2749 19.143 10.2354 19.5543 9.79049C19.8578 9.47413 20.2202 8.90072 20.2202 8.73265C20.2202 8.70299 20.0733 8.75242 19.9068 8.8414C19.7305 8.94026 19.3388 9.08856 19.045 9.17754L18.5162 9.3456L18.0364 9.01935C17.772 8.8414 17.3999 8.64367 17.204 8.58436C16.7046 8.44595 15.9407 8.46572 15.4903 8.6239C14.2662 9.06879 13.4926 10.2156 13.5807 11.4712Z" fill="#888EAA"/>
</svg>
